<?xml version="1.0" encoding="utf-8"?>
<svg version="1.1" xmlns:xlink="http://www.w3.org/1999/xlink" width="689px" height="57px" viewBox="1932 397  689 57" xmlns="http://www.w3.org/2000/svg">
  <path d="M 1933 412  A 14 14 0 0 1 1947 398 L 2606 398  A 14 14 0 0 1 2620 412 L 2620 439  A 14 14 0 0 1 2606 453 L 1947 453  A 14 14 0 0 1 1933 439 L 1933 412  Z " fill-rule="nonzero" fill="#ffffff" stroke="none" />
  <path d="M 1932.5 412  A 14.5 14.5 0 0 1 1947 397.5 L 2606 397.5  A 14.5 14.5 0 0 1 2620.5 412 L 2620.5 439  A 14.5 14.5 0 0 1 2606 453.5 L 1947 453.5  A 14.5 14.5 0 0 1 1932.5 439 L 1932.5 412  Z " stroke-width="1" stroke="#aaaaaa" fill="none" stroke-opacity="0.498039215686275" />
</svg>