<?xml version="1.0" encoding="utf-8"?>
<svg version="1.1" xmlns:xlink="http://www.w3.org/1999/xlink" width="12px" height="12px" viewBox="2622 1460  12 12" xmlns="http://www.w3.org/2000/svg">
  <path d="M 2622.5 1463  A 2.5 2.5 0 0 1 2625 1460.5 L 2631 1460.5  A 2.5 2.5 0 0 1 2633.5 1463 L 2633.5 1469  A 2.5 2.5 0 0 1 2631 1471.5 L 2625 1471.5  A 2.5 2.5 0 0 1 2622.5 1469 L 2622.5 1463  Z " fill-rule="nonzero" fill="#ffffff" stroke="none" />
  <path d="M 2622.5 1463  A 2.5 2.5 0 0 1 2625 1460.5 L 2631 1460.5  A 2.5 2.5 0 0 1 2633.5 1463 L 2633.5 1469  A 2.5 2.5 0 0 1 2631 1471.5 L 2625 1471.5  A 2.5 2.5 0 0 1 2622.5 1469 L 2622.5 1463  Z " stroke-width="1" stroke="#f60068" fill="none" />
</svg>