<?xml version="1.0" encoding="utf-8"?>
<svg version="1.1" xmlns:xlink="http://www.w3.org/1999/xlink" width="12px" height="12px" viewBox="498 536  12 12" xmlns="http://www.w3.org/2000/svg">
  <path d="M 499 538  A 1 1 0 0 1 500 537 L 508 537  A 1 1 0 0 1 509 538 L 509 546  A 1 1 0 0 1 508 547 L 500 547  A 1 1 0 0 1 499 546 L 499 538  Z " fill-rule="nonzero" fill="#ffffff" stroke="none" />
  <path d="M 498.5 538  A 1.5 1.5 0 0 1 500 536.5 L 508 536.5  A 1.5 1.5 0 0 1 509.5 538 L 509.5 546  A 1.5 1.5 0 0 1 508 547.5 L 500 547.5  A 1.5 1.5 0 0 1 498.5 546 L 498.5 538  Z " stroke-width="1" stroke="#000000" fill="none" stroke-opacity="0.349019607843137" />
</svg>