<?xml version="1.0" encoding="utf-8"?>
<svg version="1.1" xmlns:xlink="http://www.w3.org/1999/xlink" width="12px" height="12px" viewBox="481 556  12 12" xmlns="http://www.w3.org/2000/svg">
  <path d="M 482 558  A 1 1 0 0 1 483 557 L 491 557  A 1 1 0 0 1 492 558 L 492 566  A 1 1 0 0 1 491 567 L 483 567  A 1 1 0 0 1 482 566 L 482 558  Z " fill-rule="nonzero" fill="#f0f0f0" stroke="none" />
  <path d="M 481.5 558  A 1.5 1.5 0 0 1 483 556.5 L 491 556.5  A 1.5 1.5 0 0 1 492.5 558 L 492.5 566  A 1.5 1.5 0 0 1 491 567.5 L 483 567.5  A 1.5 1.5 0 0 1 481.5 566 L 481.5 558  Z " stroke-width="1" stroke="#000000" fill="none" stroke-opacity="0.349019607843137" />
  <path d="M 483.571428571429 562  L 486.142857142857 564.571428571429  " stroke-width="2.57142857142857" stroke="#000000" fill="none" stroke-opacity="0.349019607843137" />
  <path d="M 486.142857142857 564.571428571429  L 490.428571428571 558.571428571429  " stroke-width="2.57142857142857" stroke="#000000" fill="none" stroke-opacity="0.349019607843137" />
</svg>