<?xml version="1.0" encoding="utf-8"?>
<svg version="1.1" xmlns:xlink="http://www.w3.org/1999/xlink" width="12px" height="12px" viewBox="465 577  12 12" xmlns="http://www.w3.org/2000/svg">
  <path d="M 466 579  A 1 1 0 0 1 467 578 L 475 578  A 1 1 0 0 1 476 579 L 476 587  A 1 1 0 0 1 475 588 L 467 588  A 1 1 0 0 1 466 587 L 466 579  Z " fill-rule="nonzero" fill="#f0f0f0" stroke="none" />
  <path d="M 465.5 579  A 1.5 1.5 0 0 1 467 577.5 L 475 577.5  A 1.5 1.5 0 0 1 476.5 579 L 476.5 587  A 1.5 1.5 0 0 1 475 588.5 L 467 588.5  A 1.5 1.5 0 0 1 465.5 587 L 465.5 579  Z " stroke-width="1" stroke="#000000" fill="none" stroke-opacity="0.349019607843137" />
  <path d="M 467.571428571429 583  L 470.142857142857 585.571428571429  " stroke-width="2.57142857142857" stroke="#000000" fill="none" stroke-opacity="0.349019607843137" />
  <path d="M 470.142857142857 585.571428571429  L 474.428571428571 579.571428571429  " stroke-width="2.57142857142857" stroke="#000000" fill="none" stroke-opacity="0.349019607843137" />
</svg>