<?xml version="1.0" encoding="utf-8"?>
<svg version="1.1" xmlns:xlink="http://www.w3.org/1999/xlink" width="12px" height="12px" viewBox="528 602  12 12" xmlns="http://www.w3.org/2000/svg">
  <path d="M 529 604  A 1 1 0 0 1 530 603 L 538 603  A 1 1 0 0 1 539 604 L 539 612  A 1 1 0 0 1 538 613 L 530 613  A 1 1 0 0 1 529 612 L 529 604  Z " fill-rule="nonzero" fill="#f0f0f0" stroke="none" />
  <path d="M 528.5 604  A 1.5 1.5 0 0 1 530 602.5 L 538 602.5  A 1.5 1.5 0 0 1 539.5 604 L 539.5 612  A 1.5 1.5 0 0 1 538 613.5 L 530 613.5  A 1.5 1.5 0 0 1 528.5 612 L 528.5 604  Z " stroke-width="1" stroke="#000000" fill="none" stroke-opacity="0.349019607843137" />
</svg>