<?xml version="1.0" encoding="utf-8"?>
<svg version="1.1" xmlns:xlink="http://www.w3.org/1999/xlink" width="12px" height="12px" viewBox="1583 226  12 12" xmlns="http://www.w3.org/2000/svg">
  <path d="M 1584 229  A 2 2 0 0 1 1586 227 L 1592 227  A 2 2 0 0 1 1594 229 L 1594 235  A 2 2 0 0 1 1592 237 L 1586 237  A 2 2 0 0 1 1584 235 L 1584 229  Z " fill-rule="nonzero" fill="#f0f0f0" stroke="none" />
  <path d="M 1583.5 229  A 2.5 2.5 0 0 1 1586 226.5 L 1592 226.5  A 2.5 2.5 0 0 1 1594.5 229 L 1594.5 235  A 2.5 2.5 0 0 1 1592 237.5 L 1586 237.5  A 2.5 2.5 0 0 1 1583.5 235 L 1583.5 229  Z " stroke-width="1" stroke="#000000" fill="none" stroke-opacity="0.349019607843137" />
  <path d="M 1585.57142857143 232  L 1588.14285714286 234.571428571429  " stroke-width="2.57142857142857" stroke="#000000" fill="none" stroke-opacity="0.349019607843137" />
  <path d="M 1588.14285714286 234.571428571429  L 1592.42857142857 228.571428571429  " stroke-width="2.57142857142857" stroke="#000000" fill="none" stroke-opacity="0.349019607843137" />
</svg>