<?xml version="1.0" encoding="utf-8"?>
<svg version="1.1" xmlns:xlink="http://www.w3.org/1999/xlink" width="12px" height="12px" viewBox="1583 261  12 12" xmlns="http://www.w3.org/2000/svg">
  <path d="M 1583.5 264  A 2.5 2.5 0 0 1 1586 261.5 L 1592 261.5  A 2.5 2.5 0 0 1 1594.5 264 L 1594.5 270  A 2.5 2.5 0 0 1 1592 272.5 L 1586 272.5  A 2.5 2.5 0 0 1 1583.5 270 L 1583.5 264  Z " fill-rule="nonzero" fill="#ffffff" stroke="none" />
  <path d="M 1583.5 264  A 2.5 2.5 0 0 1 1586 261.5 L 1592 261.5  A 2.5 2.5 0 0 1 1594.5 264 L 1594.5 270  A 2.5 2.5 0 0 1 1592 272.5 L 1586 272.5  A 2.5 2.5 0 0 1 1583.5 270 L 1583.5 264  Z " stroke-width="1" stroke="#7d8a7c" fill="none" />
  <path d="M 1585.57142857143 267  L 1588.14285714286 269.571428571429  " stroke-width="2.57142857142857" stroke="#7d8a7c" fill="none" />
  <path d="M 1588.14285714286 269.571428571429  L 1592.42857142857 263.571428571429  " stroke-width="2.57142857142857" stroke="#7d8a7c" fill="none" />
</svg>