<?xml version="1.0" encoding="utf-8"?>
<svg version="1.1" xmlns:xlink="http://www.w3.org/1999/xlink" width="12px" height="12px" viewBox="1583 261  12 12" xmlns="http://www.w3.org/2000/svg">
  <path d="M 1584 264  A 2 2 0 0 1 1586 262 L 1592 262  A 2 2 0 0 1 1594 264 L 1594 270  A 2 2 0 0 1 1592 272 L 1586 272  A 2 2 0 0 1 1584 270 L 1584 264  Z " fill-rule="nonzero" fill="#ffffff" stroke="none" />
  <path d="M 1583.5 264  A 2.5 2.5 0 0 1 1586 261.5 L 1592 261.5  A 2.5 2.5 0 0 1 1594.5 264 L 1594.5 270  A 2.5 2.5 0 0 1 1592 272.5 L 1586 272.5  A 2.5 2.5 0 0 1 1583.5 270 L 1583.5 264  Z " stroke-width="1" stroke="#000000" fill="none" stroke-opacity="0.349019607843137" />
</svg>