<?xml version="1.0" encoding="utf-8"?>
<svg version="1.1" xmlns:xlink="http://www.w3.org/1999/xlink" width="167px" height="148px" xmlns="http://www.w3.org/2000/svg">
  <g transform="matrix(1 0 0 1 -418 -366 )">
    <path d="M 501.5 366  C 548.26 366  585 398.56  585 440  C 585 481.44  548.26 514  501.5 514  C 454.74 514  418 481.44  418 440  C 418 398.56  454.74 366  501.5 366  Z " fill-rule="nonzero" fill="#ffffff" stroke="none" />
    <path d="M 501.5 366.5  C 547.98 366.5  584.5 398.84  584.5 440  C 584.5 481.16  547.98 513.5  501.5 513.5  C 455.02 513.5  418.5 481.16  418.5 440  C 418.5 398.84  455.02 366.5  501.5 366.5  Z " stroke-width="1" stroke="#ffffff" fill="none" />
  </g>
</svg>