<?xml version="1.0" encoding="utf-8"?>
<svg version="1.1" xmlns:xlink="http://www.w3.org/1999/xlink" width="10px" height="9px" xmlns="http://www.w3.org/2000/svg">
  <g transform="matrix(1 0 0 1 -1127 -177 )">
    <path d="M 9.814453125 0.296875  C 9.93815104166667 0.494791666666666  10 0.729166666666664  10 1  C 10 1.27083333333333  9.93815104166667 1.50520833333333  9.814453125 1.703125  L 5.439453125 8.703125  C 5.31575520833333 8.90104166666667  5.16927083333333 9  5 9  C 4.83072916666667 9  4.68424479166667 8.90104166666667  4.560546875 8.703125  L 0.185546875 1.703125  C 0.0618489583333333 1.50520833333333  0 1.27083333333333  0 1  C 0 0.729166666666664  0.0618489583333333 0.494791666666666  0.185546875 0.296875  C 0.309244791666667 0.0989583333333321  0.455729166666667 0  0.625 0  L 9.375 0  C 9.54427083333333 0  9.69075520833333 0.0989583333333321  9.814453125 0.296875  Z " fill-rule="nonzero" fill="#16006c" stroke="none" transform="matrix(1 0 0 1 1127 177 )" />
  </g>
</svg>