<?xml version="1.0" encoding="utf-8"?>
<svg version="1.1" xmlns:xlink="http://www.w3.org/1999/xlink" width="1322px" height="1139px" xmlns="http://www.w3.org/2000/svg">
  <g transform="matrix(1 0 0 1 -177 0 )">
    <path d="M 178 35  A 34 34 0 0 1 212 1 L 1464 1  A 34 34 0 0 1 1498 35 L 1498 1104  A 34 34 0 0 1 1464 1138 L 212 1138  A 34 34 0 0 1 178 1104 L 178 35  Z " fill-rule="nonzero" fill="#e6e6e6" stroke="none" fill-opacity="0.0470588235294118" />
    <path d="M 177.5 35  A 34.5 34.5 0 0 1 212 0.5 L 1464 0.5  A 34.5 34.5 0 0 1 1498.5 35 L 1498.5 1104  A 34.5 34.5 0 0 1 1464 1138.5 L 212 1138.5  A 34.5 34.5 0 0 1 177.5 1104 L 177.5 35  Z " stroke-width="1" stroke="#d7d7d7" fill="none" stroke-opacity="0.498039215686275" />
  </g>
</svg>