<?xml version="1.0" encoding="utf-8"?>
<svg version="1.1" xmlns:xlink="http://www.w3.org/1999/xlink" width="118px" height="44px" xmlns="http://www.w3.org/2000/svg">
  <g transform="matrix(1 0 0 1 -706 -431 )">
    <path d="M 707 453  A 21 21 0 0 1 728 432 L 802 432  A 21 21 0 0 1 823 453 A 21 21 0 0 1 802 474 L 728 474  A 21 21 0 0 1 707 453 Z " fill-rule="nonzero" fill="#ffffff" stroke="none" fill-opacity="0.996078431372549" />
    <path d="M 706.5 453  A 21.5 21.5 0 0 1 728 431.5 L 802 431.5  A 21.5 21.5 0 0 1 823.5 453 A 21.5 21.5 0 0 1 802 474.5 L 728 474.5  A 21.5 21.5 0 0 1 706.5 453 Z " stroke-width="1" stroke="#8c8c8c" fill="none" stroke-opacity="0.996078431372549" />
  </g>
</svg>