<?xml version="1.0" encoding="utf-8"?>
<svg version="1.1" xmlns:xlink="http://www.w3.org/1999/xlink" width="1148px" height="499px" xmlns="http://www.w3.org/2000/svg">
  <g transform="matrix(1 0 0 1 -174 -123 )">
    <path d="M 175 138  A 14 14 0 0 1 189 124 L 1307 124  A 14 14 0 0 1 1321 138 L 1321 607  A 14 14 0 0 1 1307 621 L 189 621  A 14 14 0 0 1 175 607 L 175 138  Z " fill-rule="nonzero" fill="#e0e7ff" stroke="none" fill-opacity="0.2" />
    <path d="M 174.5 138  A 14.5 14.5 0 0 1 189 123.5 L 1307 123.5  A 14.5 14.5 0 0 1 1321.5 138 L 1321.5 607  A 14.5 14.5 0 0 1 1307 621.5 L 189 621.5  A 14.5 14.5 0 0 1 174.5 607 L 174.5 138  Z " stroke-width="1" stroke="#d7d7d7" fill="none" stroke-opacity="0.498039215686275" />
  </g>
</svg>