<?xml version="1.0" encoding="utf-8"?>
<svg version="1.1" xmlns:xlink="http://www.w3.org/1999/xlink" width="118px" height="44px" xmlns="http://www.w3.org/2000/svg">
  <g transform="matrix(1 0 0 1 -197 -527 )">
    <path d="M 198 549  A 21 21 0 0 1 219 528 L 293 528  A 21 21 0 0 1 314 549 A 21 21 0 0 1 293 570 L 219 570  A 21 21 0 0 1 198 549 Z " fill-rule="nonzero" fill="#ffffff" stroke="none" fill-opacity="0.996078431372549" />
    <path d="M 197.5 549  A 21.5 21.5 0 0 1 219 527.5 L 293 527.5  A 21.5 21.5 0 0 1 314.5 549 A 21.5 21.5 0 0 1 293 570.5 L 219 570.5  A 21.5 21.5 0 0 1 197.5 549 Z " stroke-width="1" stroke="#8c8c8c" fill="none" stroke-opacity="0.996078431372549" />
  </g>
</svg>