<?xml version="1.0" encoding="utf-8"?>
<svg version="1.1" xmlns:xlink="http://www.w3.org/1999/xlink" width="12px" height="12px" viewBox="1018 897  12 12" xmlns="http://www.w3.org/2000/svg">
  <path d="M 1018.5 900  A 2.5 2.5 0 0 1 1021 897.5 L 1027 897.5  A 2.5 2.5 0 0 1 1029.5 900 L 1029.5 906  A 2.5 2.5 0 0 1 1027 908.5 L 1021 908.5  A 2.5 2.5 0 0 1 1018.5 906 L 1018.5 900  Z " fill-rule="nonzero" fill="#d7d7d7" stroke="none" />
  <path d="M 1018.5 900  A 2.5 2.5 0 0 1 1021 897.5 L 1027 897.5  A 2.5 2.5 0 0 1 1029.5 900 L 1029.5 906  A 2.5 2.5 0 0 1 1027 908.5 L 1021 908.5  A 2.5 2.5 0 0 1 1018.5 906 L 1018.5 900  Z " stroke-width="1" stroke="#f60068" fill="none" />
</svg>