<?xml version="1.0" encoding="utf-8"?>
<svg version="1.1" xmlns:xlink="http://www.w3.org/1999/xlink" width="12px" height="12px" viewBox="1018 870  12 12" xmlns="http://www.w3.org/2000/svg">
  <path d="M 1018.5 873  A 2.5 2.5 0 0 1 1021 870.5 L 1027 870.5  A 2.5 2.5 0 0 1 1029.5 873 L 1029.5 879  A 2.5 2.5 0 0 1 1027 881.5 L 1021 881.5  A 2.5 2.5 0 0 1 1018.5 879 L 1018.5 873  Z " fill-rule="nonzero" fill="#ffffff" stroke="none" />
  <path d="M 1018.5 873  A 2.5 2.5 0 0 1 1021 870.5 L 1027 870.5  A 2.5 2.5 0 0 1 1029.5 873 L 1029.5 879  A 2.5 2.5 0 0 1 1027 881.5 L 1021 881.5  A 2.5 2.5 0 0 1 1018.5 879 L 1018.5 873  Z " stroke-width="1" stroke="#f60068" fill="none" />
</svg>