<?xml version="1.0" encoding="utf-8"?>
<svg version="1.1" xmlns:xlink="http://www.w3.org/1999/xlink" width="12px" height="12px" viewBox="1241 1505  12 12" xmlns="http://www.w3.org/2000/svg">
  <path d="M 1242 1508  A 2 2 0 0 1 1244 1506 L 1250 1506  A 2 2 0 0 1 1252 1508 L 1252 1514  A 2 2 0 0 1 1250 1516 L 1244 1516  A 2 2 0 0 1 1242 1514 L 1242 1508  Z " fill-rule="nonzero" fill="#ffffff" stroke="none" />
  <path d="M 1241.5 1508  A 2.5 2.5 0 0 1 1244 1505.5 L 1250 1505.5  A 2.5 2.5 0 0 1 1252.5 1508 L 1252.5 1514  A 2.5 2.5 0 0 1 1250 1516.5 L 1244 1516.5  A 2.5 2.5 0 0 1 1241.5 1514 L 1241.5 1508  Z " stroke-width="1" stroke="#000000" fill="none" stroke-opacity="0.349019607843137" />
  <path d="M 1243.57142857143 1511  L 1246.14285714286 1513.57142857143  " stroke-width="2.57142857142857" stroke="#000000" fill="none" stroke-opacity="0.349019607843137" />
  <path d="M 1246.14285714286 1513.57142857143  L 1250.42857142857 1507.57142857143  " stroke-width="2.57142857142857" stroke="#000000" fill="none" stroke-opacity="0.349019607843137" />
</svg>