<?xml version="1.0" encoding="utf-8"?>
<svg version="1.1" xmlns:xlink="http://www.w3.org/1999/xlink" width="157px" height="29px" viewBox="658 1068  157 29" xmlns="http://www.w3.org/2000/svg">
  <path d="M 659 1078  A 9 9 0 0 1 668 1069 L 805 1069  A 9 9 0 0 1 814 1078 L 814 1087  A 9 9 0 0 1 805 1096 L 668 1096  A 9 9 0 0 1 659 1087 L 659 1078  Z " fill-rule="nonzero" fill="#ffffff" stroke="none" />
  <path d="M 658.5 1078  A 9.5 9.5 0 0 1 668 1068.5 L 805 1068.5  A 9.5 9.5 0 0 1 814.5 1078 L 814.5 1087  A 9.5 9.5 0 0 1 805 1096.5 L 668 1096.5  A 9.5 9.5 0 0 1 658.5 1087 L 658.5 1078  Z " stroke-width="1" stroke="#aaaaaa" fill="none" stroke-opacity="0.498039215686275" />
</svg>