<?xml version="1.0" encoding="utf-8"?>
<svg version="1.1" xmlns:xlink="http://www.w3.org/1999/xlink" width="174px" height="29px" viewBox="652 1662  174 29" xmlns="http://www.w3.org/2000/svg">
  <path d="M 653 1672  A 9 9 0 0 1 662 1663 L 816 1663  A 9 9 0 0 1 825 1672 L 825 1681  A 9 9 0 0 1 816 1690 L 662 1690  A 9 9 0 0 1 653 1681 L 653 1672  Z " fill-rule="nonzero" fill="#ffffff" stroke="none" />
  <path d="M 652.5 1672  A 9.5 9.5 0 0 1 662 1662.5 L 816 1662.5  A 9.5 9.5 0 0 1 825.5 1672 L 825.5 1681  A 9.5 9.5 0 0 1 816 1690.5 L 662 1690.5  A 9.5 9.5 0 0 1 652.5 1681 L 652.5 1672  Z " stroke-width="1" stroke="#aaaaaa" fill="none" stroke-opacity="0.498039215686275" />
</svg>