<?xml version="1.0" encoding="utf-8"?>
<svg version="1.1" xmlns:xlink="http://www.w3.org/1999/xlink" width="134px" height="29px" viewBox="700 1959  134 29" xmlns="http://www.w3.org/2000/svg">
  <path d="M 701 1969  A 9 9 0 0 1 710 1960 L 824 1960  A 9 9 0 0 1 833 1969 L 833 1978  A 9 9 0 0 1 824 1987 L 710 1987  A 9 9 0 0 1 701 1978 L 701 1969  Z " fill-rule="nonzero" fill="#f0f0f0" stroke="none" />
  <path d="M 700.5 1969  A 9.5 9.5 0 0 1 710 1959.5 L 824 1959.5  A 9.5 9.5 0 0 1 833.5 1969 L 833.5 1978  A 9.5 9.5 0 0 1 824 1987.5 L 710 1987.5  A 9.5 9.5 0 0 1 700.5 1978 L 700.5 1969  Z " stroke-width="1" stroke="#aaaaaa" fill="none" stroke-opacity="0.498039215686275" />
</svg>