<?xml version="1.0" encoding="utf-8"?>
<svg version="1.1" xmlns:xlink="http://www.w3.org/1999/xlink" width="12px" height="12px" viewBox="1241 1450  12 12" xmlns="http://www.w3.org/2000/svg">
  <path d="M 1242 1453  A 2 2 0 0 1 1244 1451 L 1250 1451  A 2 2 0 0 1 1252 1453 L 1252 1459  A 2 2 0 0 1 1250 1461 L 1244 1461  A 2 2 0 0 1 1242 1459 L 1242 1453  Z " fill-rule="nonzero" fill="#ffffff" stroke="none" />
  <path d="M 1241.5 1453  A 2.5 2.5 0 0 1 1244 1450.5 L 1250 1450.5  A 2.5 2.5 0 0 1 1252.5 1453 L 1252.5 1459  A 2.5 2.5 0 0 1 1250 1461.5 L 1244 1461.5  A 2.5 2.5 0 0 1 1241.5 1459 L 1241.5 1453  Z " stroke-width="1" stroke="#000000" fill="none" stroke-opacity="0.349019607843137" />
</svg>