<?xml version="1.0" encoding="utf-8"?>
<svg version="1.1" xmlns:xlink="http://www.w3.org/1999/xlink" width="12px" height="12px" viewBox="1252 2582  12 12" xmlns="http://www.w3.org/2000/svg">
  <path d="M 1253 2585  A 2 2 0 0 1 1255 2583 L 1261 2583  A 2 2 0 0 1 1263 2585 L 1263 2591  A 2 2 0 0 1 1261 2593 L 1255 2593  A 2 2 0 0 1 1253 2591 L 1253 2585  Z " fill-rule="nonzero" fill="#ffffff" stroke="none" />
  <path d="M 1252.5 2585  A 2.5 2.5 0 0 1 1255 2582.5 L 1261 2582.5  A 2.5 2.5 0 0 1 1263.5 2585 L 1263.5 2591  A 2.5 2.5 0 0 1 1261 2593.5 L 1255 2593.5  A 2.5 2.5 0 0 1 1252.5 2591 L 1252.5 2585  Z " stroke-width="1" stroke="#000000" fill="none" stroke-opacity="0.349019607843137" />
</svg>