<?xml version="1.0" encoding="utf-8"?>
<svg version="1.1" xmlns:xlink="http://www.w3.org/1999/xlink" width="12px" height="12px" viewBox="1241 1208  12 12" xmlns="http://www.w3.org/2000/svg">
  <path d="M 1242 1211  A 2 2 0 0 1 1244 1209 L 1250 1209  A 2 2 0 0 1 1252 1211 L 1252 1217  A 2 2 0 0 1 1250 1219 L 1244 1219  A 2 2 0 0 1 1242 1217 L 1242 1211  Z " fill-rule="nonzero" fill="#f0f0f0" stroke="none" />
  <path d="M 1241.5 1211  A 2.5 2.5 0 0 1 1244 1208.5 L 1250 1208.5  A 2.5 2.5 0 0 1 1252.5 1211 L 1252.5 1217  A 2.5 2.5 0 0 1 1250 1219.5 L 1244 1219.5  A 2.5 2.5 0 0 1 1241.5 1217 L 1241.5 1211  Z " stroke-width="1" stroke="#000000" fill="none" stroke-opacity="0.349019607843137" />
  <path d="M 1243.57142857143 1214  L 1246.14285714286 1216.57142857143  " stroke-width="2.57142857142857" stroke="#000000" fill="none" stroke-opacity="0.349019607843137" />
  <path d="M 1246.14285714286 1216.57142857143  L 1250.42857142857 1210.57142857143  " stroke-width="2.57142857142857" stroke="#000000" fill="none" stroke-opacity="0.349019607843137" />
</svg>