<?xml version="1.0" encoding="utf-8"?>
<svg version="1.1" xmlns:xlink="http://www.w3.org/1999/xlink" width="12px" height="12px" viewBox="1241 1263  12 12" xmlns="http://www.w3.org/2000/svg">
  <path d="M 1242 1266  A 2 2 0 0 1 1244 1264 L 1250 1264  A 2 2 0 0 1 1252 1266 L 1252 1272  A 2 2 0 0 1 1250 1274 L 1244 1274  A 2 2 0 0 1 1242 1272 L 1242 1266  Z " fill-rule="nonzero" fill="#f0f0f0" stroke="none" />
  <path d="M 1241.5 1266  A 2.5 2.5 0 0 1 1244 1263.5 L 1250 1263.5  A 2.5 2.5 0 0 1 1252.5 1266 L 1252.5 1272  A 2.5 2.5 0 0 1 1250 1274.5 L 1244 1274.5  A 2.5 2.5 0 0 1 1241.5 1272 L 1241.5 1266  Z " stroke-width="1" stroke="#000000" fill="none" stroke-opacity="0.349019607843137" />
</svg>