<?xml version="1.0" encoding="utf-8"?>
<svg version="1.1" xmlns:xlink="http://www.w3.org/1999/xlink" width="12px" height="12px" viewBox="1241 1560  12 12" xmlns="http://www.w3.org/2000/svg">
  <path d="M 1242 1563  A 2 2 0 0 1 1244 1561 L 1250 1561  A 2 2 0 0 1 1252 1563 L 1252 1569  A 2 2 0 0 1 1250 1571 L 1244 1571  A 2 2 0 0 1 1242 1569 L 1242 1563  Z " fill-rule="nonzero" fill="#ffffff" stroke="none" />
  <path d="M 1241.5 1563  A 2.5 2.5 0 0 1 1244 1560.5 L 1250 1560.5  A 2.5 2.5 0 0 1 1252.5 1563 L 1252.5 1569  A 2.5 2.5 0 0 1 1250 1571.5 L 1244 1571.5  A 2.5 2.5 0 0 1 1241.5 1569 L 1241.5 1563  Z " stroke-width="1" stroke="#000000" fill="none" stroke-opacity="0.349019607843137" />
</svg>