<?xml version="1.0" encoding="utf-8"?>
<svg version="1.1" xmlns:xlink="http://www.w3.org/1999/xlink" width="12px" height="12px" viewBox="1246 3123  12 12" xmlns="http://www.w3.org/2000/svg">
  <path d="M 1247 3126  A 2 2 0 0 1 1249 3124 L 1255 3124  A 2 2 0 0 1 1257 3126 L 1257 3132  A 2 2 0 0 1 1255 3134 L 1249 3134  A 2 2 0 0 1 1247 3132 L 1247 3126  Z " fill-rule="nonzero" fill="#f0f0f0" stroke="none" />
  <path d="M 1246.5 3126  A 2.5 2.5 0 0 1 1249 3123.5 L 1255 3123.5  A 2.5 2.5 0 0 1 1257.5 3126 L 1257.5 3132  A 2.5 2.5 0 0 1 1255 3134.5 L 1249 3134.5  A 2.5 2.5 0 0 1 1246.5 3132 L 1246.5 3126  Z " stroke-width="1" stroke="#000000" fill="none" stroke-opacity="0.349019607843137" />
  <path d="M 1248.57142857143 3129  L 1251.14285714286 3131.57142857143  " stroke-width="2.57142857142857" stroke="#000000" fill="none" stroke-opacity="0.349019607843137" />
  <path d="M 1251.14285714286 3131.57142857143  L 1255.42857142857 3125.57142857143  " stroke-width="2.57142857142857" stroke="#000000" fill="none" stroke-opacity="0.349019607843137" />
</svg>