<?xml version="1.0" encoding="utf-8"?>
<svg version="1.1" xmlns:xlink="http://www.w3.org/1999/xlink" width="12px" height="12px" viewBox="1241 2154  12 12" xmlns="http://www.w3.org/2000/svg">
  <path d="M 1242 2157  A 2 2 0 0 1 1244 2155 L 1250 2155  A 2 2 0 0 1 1252 2157 L 1252 2163  A 2 2 0 0 1 1250 2165 L 1244 2165  A 2 2 0 0 1 1242 2163 L 1242 2157  Z " fill-rule="nonzero" fill="#ffffff" stroke="none" />
  <path d="M 1241.5 2157  A 2.5 2.5 0 0 1 1244 2154.5 L 1250 2154.5  A 2.5 2.5 0 0 1 1252.5 2157 L 1252.5 2163  A 2.5 2.5 0 0 1 1250 2165.5 L 1244 2165.5  A 2.5 2.5 0 0 1 1241.5 2163 L 1241.5 2157  Z " stroke-width="1" stroke="#000000" fill="none" stroke-opacity="0.349019607843137" />
  <path d="M 1243.57142857143 2160  L 1246.14285714286 2162.57142857143  " stroke-width="2.57142857142857" stroke="#000000" fill="none" stroke-opacity="0.349019607843137" />
  <path d="M 1246.14285714286 2162.57142857143  L 1250.42857142857 2156.57142857143  " stroke-width="2.57142857142857" stroke="#000000" fill="none" stroke-opacity="0.349019607843137" />
</svg>