<?xml version="1.0" encoding="utf-8"?>
<svg version="1.1" xmlns:xlink="http://www.w3.org/1999/xlink" width="12px" height="12px" viewBox="1252 2638  12 12" xmlns="http://www.w3.org/2000/svg">
  <path d="M 1253 2641  A 2 2 0 0 1 1255 2639 L 1261 2639  A 2 2 0 0 1 1263 2641 L 1263 2647  A 2 2 0 0 1 1261 2649 L 1255 2649  A 2 2 0 0 1 1253 2647 L 1253 2641  Z " fill-rule="nonzero" fill="#f0f0f0" stroke="none" />
  <path d="M 1252.5 2641  A 2.5 2.5 0 0 1 1255 2638.5 L 1261 2638.5  A 2.5 2.5 0 0 1 1263.5 2641 L 1263.5 2647  A 2.5 2.5 0 0 1 1261 2649.5 L 1255 2649.5  A 2.5 2.5 0 0 1 1252.5 2647 L 1252.5 2641  Z " stroke-width="1" stroke="#000000" fill="none" stroke-opacity="0.349019607843137" />
  <path d="M 1254.57142857143 2644  L 1257.14285714286 2646.57142857143  " stroke-width="2.57142857142857" stroke="#000000" fill="none" stroke-opacity="0.349019607843137" />
  <path d="M 1257.14285714286 2646.57142857143  L 1261.42857142857 2640.57142857143  " stroke-width="2.57142857142857" stroke="#000000" fill="none" stroke-opacity="0.349019607843137" />
</svg>