<?xml version="1.0" encoding="utf-8"?>
<svg version="1.1" xmlns:xlink="http://www.w3.org/1999/xlink" width="12px" height="12px" viewBox="1241 2271  12 12" xmlns="http://www.w3.org/2000/svg">
  <path d="M 1242 2274  A 2 2 0 0 1 1244 2272 L 1250 2272  A 2 2 0 0 1 1252 2274 L 1252 2280  A 2 2 0 0 1 1250 2282 L 1244 2282  A 2 2 0 0 1 1242 2280 L 1242 2274  Z " fill-rule="nonzero" fill="#ffffff" stroke="none" />
  <path d="M 1241.5 2274  A 2.5 2.5 0 0 1 1244 2271.5 L 1250 2271.5  A 2.5 2.5 0 0 1 1252.5 2274 L 1252.5 2280  A 2.5 2.5 0 0 1 1250 2282.5 L 1244 2282.5  A 2.5 2.5 0 0 1 1241.5 2280 L 1241.5 2274  Z " stroke-width="1" stroke="#000000" fill="none" stroke-opacity="0.349019607843137" />
</svg>