<?xml version="1.0" encoding="utf-8"?>
<svg version="1.1" xmlns:xlink="http://www.w3.org/1999/xlink" width="12px" height="12px" viewBox="1246 3008  12 12" xmlns="http://www.w3.org/2000/svg">
  <path d="M 1247 3011  A 2 2 0 0 1 1249 3009 L 1255 3009  A 2 2 0 0 1 1257 3011 L 1257 3017  A 2 2 0 0 1 1255 3019 L 1249 3019  A 2 2 0 0 1 1247 3017 L 1247 3011  Z " fill-rule="nonzero" fill="#f0f0f0" stroke="none" />
  <path d="M 1246.5 3011  A 2.5 2.5 0 0 1 1249 3008.5 L 1255 3008.5  A 2.5 2.5 0 0 1 1257.5 3011 L 1257.5 3017  A 2.5 2.5 0 0 1 1255 3019.5 L 1249 3019.5  A 2.5 2.5 0 0 1 1246.5 3017 L 1246.5 3011  Z " stroke-width="1" stroke="#000000" fill="none" stroke-opacity="0.349019607843137" />
</svg>