<?xml version="1.0" encoding="utf-8"?>
<svg version="1.1" xmlns:xlink="http://www.w3.org/1999/xlink" width="12px" height="12px" viewBox="1246 2954  12 12" xmlns="http://www.w3.org/2000/svg">
  <path d="M 1247 2957  A 2 2 0 0 1 1249 2955 L 1255 2955  A 2 2 0 0 1 1257 2957 L 1257 2963  A 2 2 0 0 1 1255 2965 L 1249 2965  A 2 2 0 0 1 1247 2963 L 1247 2957  Z " fill-rule="nonzero" fill="#ffffff" stroke="none" />
  <path d="M 1246.5 2957  A 2.5 2.5 0 0 1 1249 2954.5 L 1255 2954.5  A 2.5 2.5 0 0 1 1257.5 2957 L 1257.5 2963  A 2.5 2.5 0 0 1 1255 2965.5 L 1249 2965.5  A 2.5 2.5 0 0 1 1246.5 2963 L 1246.5 2957  Z " stroke-width="1" stroke="#000000" fill="none" stroke-opacity="0.349019607843137" />
  <path d="M 1248.57142857143 2960  L 1251.14285714286 2962.57142857143  " stroke-width="2.57142857142857" stroke="#000000" fill="none" stroke-opacity="0.349019607843137" />
  <path d="M 1251.14285714286 2962.57142857143  L 1255.42857142857 2956.57142857143  " stroke-width="2.57142857142857" stroke="#000000" fill="none" stroke-opacity="0.349019607843137" />
</svg>