<?xml version="1.0" encoding="utf-8"?>
<svg version="1.1" xmlns:xlink="http://www.w3.org/1999/xlink" width="244px" height="39px" viewBox="694 506  244 39" xmlns="http://www.w3.org/2000/svg">
  <path d="M 695 511  A 4 4 0 0 1 699 507 L 933 507  A 4 4 0 0 1 937 511 L 937 540  A 4 4 0 0 1 933 544 L 699 544  A 4 4 0 0 1 695 540 L 695 511  Z " fill-rule="nonzero" fill="#f0f0f0" stroke="none" />
  <path d="M 694.5 511  A 4.5 4.5 0 0 1 699 506.5 L 933 506.5  A 4.5 4.5 0 0 1 937.5 511 L 937.5 540  A 4.5 4.5 0 0 1 933 544.5 L 699 544.5  A 4.5 4.5 0 0 1 694.5 540 L 694.5 511  Z " stroke-width="1" stroke="#000000" fill="none" stroke-opacity="0.349019607843137" />
</svg>