<?xml version="1.0" encoding="utf-8"?>
<svg version="1.1" xmlns:xlink="http://www.w3.org/1999/xlink" width="244px" height="39px" viewBox="694 417  244 39" xmlns="http://www.w3.org/2000/svg">
  <path d="M 695 422  A 4 4 0 0 1 699 418 L 933 418  A 4 4 0 0 1 937 422 L 937 451  A 4 4 0 0 1 933 455 L 699 455  A 4 4 0 0 1 695 451 L 695 422  Z " fill-rule="nonzero" fill="#d7d7d7" stroke="none" fill-opacity="0.996078431372549" />
  <path d="M 694.5 422  A 4.5 4.5 0 0 1 699 417.5 L 933 417.5  A 4.5 4.5 0 0 1 937.5 422 L 937.5 451  A 4.5 4.5 0 0 1 933 455.5 L 699 455.5  A 4.5 4.5 0 0 1 694.5 451 L 694.5 422  Z " stroke-width="1" stroke="#000000" fill="none" stroke-opacity="0.349019607843137" />
</svg>