<?xml version="1.0" encoding="utf-8"?>
<svg version="1.1" xmlns:xlink="http://www.w3.org/1999/xlink" width="12px" height="12px" viewBox="1264 428  12 12" xmlns="http://www.w3.org/2000/svg">
  <path d="M 1265 430  A 1 1 0 0 1 1266 429 L 1274 429  A 1 1 0 0 1 1275 430 L 1275 438  A 1 1 0 0 1 1274 439 L 1266 439  A 1 1 0 0 1 1265 438 L 1265 430  Z " fill-rule="nonzero" fill="#ffffff" stroke="none" />
  <path d="M 1264.5 430  A 1.5 1.5 0 0 1 1266 428.5 L 1274 428.5  A 1.5 1.5 0 0 1 1275.5 430 L 1275.5 438  A 1.5 1.5 0 0 1 1274 439.5 L 1266 439.5  A 1.5 1.5 0 0 1 1264.5 438 L 1264.5 430  Z " stroke-width="1" stroke="#000000" fill="none" stroke-opacity="0.349019607843137" />
  <path d="M 1266.57142857143 434  L 1269.14285714286 436.571428571429  " stroke-width="2.57142857142857" stroke="#000000" fill="none" stroke-opacity="0.349019607843137" />
  <path d="M 1269.14285714286 436.571428571429  L 1273.42857142857 430.571428571429  " stroke-width="2.57142857142857" stroke="#000000" fill="none" stroke-opacity="0.349019607843137" />
</svg>