<?xml version="1.0" encoding="utf-8"?>
<svg version="1.1" xmlns:xlink="http://www.w3.org/1999/xlink" width="12px" height="12px" viewBox="498 428  12 12" xmlns="http://www.w3.org/2000/svg">
  <path d="M 499 430  A 1 1 0 0 1 500 429 L 508 429  A 1 1 0 0 1 509 430 L 509 438  A 1 1 0 0 1 508 439 L 500 439  A 1 1 0 0 1 499 438 L 499 430  Z " fill-rule="nonzero" fill="#f0f0f0" stroke="none" />
  <path d="M 498.5 430  A 1.5 1.5 0 0 1 500 428.5 L 508 428.5  A 1.5 1.5 0 0 1 509.5 430 L 509.5 438  A 1.5 1.5 0 0 1 508 439.5 L 500 439.5  A 1.5 1.5 0 0 1 498.5 438 L 498.5 430  Z " stroke-width="1" stroke="#000000" fill="none" stroke-opacity="0.349019607843137" />
  <path d="M 500.571428571429 434  L 503.142857142857 436.571428571429  " stroke-width="2.57142857142857" stroke="#000000" fill="none" stroke-opacity="0.349019607843137" />
  <path d="M 503.142857142857 436.571428571429  L 507.428571428571 430.571428571429  " stroke-width="2.57142857142857" stroke="#000000" fill="none" stroke-opacity="0.349019607843137" />
</svg>