<?xml version="1.0" encoding="utf-8"?>
<svg version="1.1" xmlns:xlink="http://www.w3.org/1999/xlink" width="12px" height="12px" viewBox="1264 585  12 12" xmlns="http://www.w3.org/2000/svg">
  <path d="M 1265 587  A 1 1 0 0 1 1266 586 L 1274 586  A 1 1 0 0 1 1275 587 L 1275 595  A 1 1 0 0 1 1274 596 L 1266 596  A 1 1 0 0 1 1265 595 L 1265 587  Z " fill-rule="nonzero" fill="#ffffff" stroke="none" />
  <path d="M 1264.5 587  A 1.5 1.5 0 0 1 1266 585.5 L 1274 585.5  A 1.5 1.5 0 0 1 1275.5 587 L 1275.5 595  A 1.5 1.5 0 0 1 1274 596.5 L 1266 596.5  A 1.5 1.5 0 0 1 1264.5 595 L 1264.5 587  Z " stroke-width="1" stroke="#000000" fill="none" stroke-opacity="0.349019607843137" />
  <path d="M 1266.57142857143 591  L 1269.14285714286 593.571428571429  " stroke-width="2.57142857142857" stroke="#000000" fill="none" stroke-opacity="0.349019607843137" />
  <path d="M 1269.14285714286 593.571428571429  L 1273.42857142857 587.571428571429  " stroke-width="2.57142857142857" stroke="#000000" fill="none" stroke-opacity="0.349019607843137" />
</svg>