<?xml version="1.0" encoding="utf-8"?>
<svg version="1.1" xmlns:xlink="http://www.w3.org/1999/xlink" width="12px" height="12px" viewBox="481 606  12 12" xmlns="http://www.w3.org/2000/svg">
  <path d="M 482 608  A 1 1 0 0 1 483 607 L 491 607  A 1 1 0 0 1 492 608 L 492 616  A 1 1 0 0 1 491 617 L 483 617  A 1 1 0 0 1 482 616 L 482 608  Z " fill-rule="nonzero" fill="#f0f0f0" stroke="none" />
  <path d="M 481.5 608  A 1.5 1.5 0 0 1 483 606.5 L 491 606.5  A 1.5 1.5 0 0 1 492.5 608 L 492.5 616  A 1.5 1.5 0 0 1 491 617.5 L 483 617.5  A 1.5 1.5 0 0 1 481.5 616 L 481.5 608  Z " stroke-width="1" stroke="#000000" fill="none" stroke-opacity="0.349019607843137" />
  <path d="M 483.571428571429 612  L 486.142857142857 614.571428571429  " stroke-width="2.57142857142857" stroke="#000000" fill="none" stroke-opacity="0.349019607843137" />
  <path d="M 486.142857142857 614.571428571429  L 490.428571428571 608.571428571429  " stroke-width="2.57142857142857" stroke="#000000" fill="none" stroke-opacity="0.349019607843137" />
</svg>