<?xml version="1.0" encoding="utf-8"?>
<svg version="1.1" xmlns:xlink="http://www.w3.org/1999/xlink" width="12px" height="12px" viewBox="481 448  12 12" xmlns="http://www.w3.org/2000/svg">
  <path d="M 482 450  A 1 1 0 0 1 483 449 L 491 449  A 1 1 0 0 1 492 450 L 492 458  A 1 1 0 0 1 491 459 L 483 459  A 1 1 0 0 1 482 458 L 482 450  Z " fill-rule="nonzero" fill="#f0f0f0" stroke="none" />
  <path d="M 481.5 450  A 1.5 1.5 0 0 1 483 448.5 L 491 448.5  A 1.5 1.5 0 0 1 492.5 450 L 492.5 458  A 1.5 1.5 0 0 1 491 459.5 L 483 459.5  A 1.5 1.5 0 0 1 481.5 458 L 481.5 450  Z " stroke-width="1" stroke="#000000" fill="none" stroke-opacity="0.349019607843137" />
</svg>