<?xml version="1.0" encoding="utf-8"?>
<svg version="1.1" xmlns:xlink="http://www.w3.org/1999/xlink" width="12px" height="12px" viewBox="1247 448  12 12" xmlns="http://www.w3.org/2000/svg">
  <path d="M 1248 450  A 1 1 0 0 1 1249 449 L 1257 449  A 1 1 0 0 1 1258 450 L 1258 458  A 1 1 0 0 1 1257 459 L 1249 459  A 1 1 0 0 1 1248 458 L 1248 450  Z " fill-rule="nonzero" fill="#ffffff" stroke="none" />
  <path d="M 1247.5 450  A 1.5 1.5 0 0 1 1249 448.5 L 1257 448.5  A 1.5 1.5 0 0 1 1258.5 450 L 1258.5 458  A 1.5 1.5 0 0 1 1257 459.5 L 1249 459.5  A 1.5 1.5 0 0 1 1247.5 458 L 1247.5 450  Z " stroke-width="1" stroke="#000000" fill="none" stroke-opacity="0.349019607843137" />
  <path d="M 1249.57142857143 454  L 1252.14285714286 456.571428571429  " stroke-width="2.57142857142857" stroke="#000000" fill="none" stroke-opacity="0.349019607843137" />
  <path d="M 1252.14285714286 456.571428571429  L 1256.42857142857 450.571428571429  " stroke-width="2.57142857142857" stroke="#000000" fill="none" stroke-opacity="0.349019607843137" />
</svg>