<?xml version="1.0" encoding="utf-8"?>
<svg version="1.1" xmlns:xlink="http://www.w3.org/1999/xlink" width="12px" height="12px" viewBox="1247 605  12 12" xmlns="http://www.w3.org/2000/svg">
  <path d="M 1248 607  A 1 1 0 0 1 1249 606 L 1257 606  A 1 1 0 0 1 1258 607 L 1258 615  A 1 1 0 0 1 1257 616 L 1249 616  A 1 1 0 0 1 1248 615 L 1248 607  Z " fill-rule="nonzero" fill="#ffffff" stroke="none" />
  <path d="M 1247.5 607  A 1.5 1.5 0 0 1 1249 605.5 L 1257 605.5  A 1.5 1.5 0 0 1 1258.5 607 L 1258.5 615  A 1.5 1.5 0 0 1 1257 616.5 L 1249 616.5  A 1.5 1.5 0 0 1 1247.5 615 L 1247.5 607  Z " stroke-width="1" stroke="#000000" fill="none" stroke-opacity="0.349019607843137" />
</svg>