<?xml version="1.0" encoding="utf-8"?>
<svg version="1.1" xmlns:xlink="http://www.w3.org/1999/xlink" width="12px" height="12px" viewBox="1231 469  12 12" xmlns="http://www.w3.org/2000/svg">
  <path d="M 1232 471  A 1 1 0 0 1 1233 470 L 1241 470  A 1 1 0 0 1 1242 471 L 1242 479  A 1 1 0 0 1 1241 480 L 1233 480  A 1 1 0 0 1 1232 479 L 1232 471  Z " fill-rule="nonzero" fill="#f0f0f0" stroke="none" />
  <path d="M 1231.5 471  A 1.5 1.5 0 0 1 1233 469.5 L 1241 469.5  A 1.5 1.5 0 0 1 1242.5 471 L 1242.5 479  A 1.5 1.5 0 0 1 1241 480.5 L 1233 480.5  A 1.5 1.5 0 0 1 1231.5 479 L 1231.5 471  Z " stroke-width="1" stroke="#000000" fill="none" stroke-opacity="0.349019607843137" />
</svg>