<?xml version="1.0" encoding="utf-8"?>
<svg version="1.1" xmlns:xlink="http://www.w3.org/1999/xlink" width="12px" height="12px" viewBox="465 469  12 12" xmlns="http://www.w3.org/2000/svg">
  <path d="M 466 471  A 1 1 0 0 1 467 470 L 475 470  A 1 1 0 0 1 476 471 L 476 479  A 1 1 0 0 1 475 480 L 467 480  A 1 1 0 0 1 466 479 L 466 471  Z " fill-rule="nonzero" fill="#f0f0f0" stroke="none" />
  <path d="M 465.5 471  A 1.5 1.5 0 0 1 467 469.5 L 475 469.5  A 1.5 1.5 0 0 1 476.5 471 L 476.5 479  A 1.5 1.5 0 0 1 475 480.5 L 467 480.5  A 1.5 1.5 0 0 1 465.5 479 L 465.5 471  Z " stroke-width="1" stroke="#000000" fill="none" stroke-opacity="0.349019607843137" />
  <path d="M 467.571428571429 475  L 470.142857142857 477.571428571429  " stroke-width="2.57142857142857" stroke="#000000" fill="none" stroke-opacity="0.349019607843137" />
  <path d="M 470.142857142857 477.571428571429  L 474.428571428571 471.571428571429  " stroke-width="2.57142857142857" stroke="#000000" fill="none" stroke-opacity="0.349019607843137" />
</svg>