<?xml version="1.0" encoding="utf-8"?>
<svg version="1.1" xmlns:xlink="http://www.w3.org/1999/xlink" width="12px" height="12px" viewBox="465 627  12 12" xmlns="http://www.w3.org/2000/svg">
  <path d="M 466 629  A 1 1 0 0 1 467 628 L 475 628  A 1 1 0 0 1 476 629 L 476 637  A 1 1 0 0 1 475 638 L 467 638  A 1 1 0 0 1 466 637 L 466 629  Z " fill-rule="nonzero" fill="#ffffff" stroke="none" />
  <path d="M 465.5 629  A 1.5 1.5 0 0 1 467 627.5 L 475 627.5  A 1.5 1.5 0 0 1 476.5 629 L 476.5 637  A 1.5 1.5 0 0 1 475 638.5 L 467 638.5  A 1.5 1.5 0 0 1 465.5 637 L 465.5 629  Z " stroke-width="1" stroke="#000000" fill="none" stroke-opacity="0.349019607843137" />
  <path d="M 467.571428571429 633  L 470.142857142857 635.571428571429  " stroke-width="2.57142857142857" stroke="#000000" fill="none" stroke-opacity="0.349019607843137" />
  <path d="M 470.142857142857 635.571428571429  L 474.428571428571 629.571428571429  " stroke-width="2.57142857142857" stroke="#000000" fill="none" stroke-opacity="0.349019607843137" />
</svg>