<?xml version="1.0" encoding="utf-8"?>
<svg version="1.1" xmlns:xlink="http://www.w3.org/1999/xlink" width="1328px" height="687px" xmlns="http://www.w3.org/2000/svg">
  <g transform="matrix(1 0 0 1 -102 -245 )">
    <path d="M 103 248  A 2 2 0 0 1 105 246 L 1429 246  L 1429 929  A 2 2 0 0 1 1427 931 L 105 931  A 2 2 0 0 1 103 929 L 103 248  Z " fill-rule="nonzero" fill="#ffffff" stroke="none" />
    <path d="M 102.5 248  A 2.5 2.5 0 0 1 105 245.5 L 1429.5 245.5  L 1429.5 929  A 2.5 2.5 0 0 1 1427 931.5 L 105 931.5  A 2.5 2.5 0 0 1 102.5 929 L 102.5 248  Z " stroke-width="1" stroke="#ec3d52" fill="none" stroke-opacity="0.188235294117647" />
  </g>
</svg>