<?xml version="1.0" encoding="utf-8"?>
<svg version="1.1" xmlns:xlink="http://www.w3.org/1999/xlink" width="12px" height="12px" viewBox="1295 670  12 12" xmlns="http://www.w3.org/2000/svg">
  <path d="M 1296 673  A 2 2 0 0 1 1298 671 L 1304 671  A 2 2 0 0 1 1306 673 L 1306 679  A 2 2 0 0 1 1304 681 L 1298 681  A 2 2 0 0 1 1296 679 L 1296 673  Z " fill-rule="nonzero" fill="#ffffff" stroke="none" />
  <path d="M 1295.5 673  A 2.5 2.5 0 0 1 1298 670.5 L 1304 670.5  A 2.5 2.5 0 0 1 1306.5 673 L 1306.5 679  A 2.5 2.5 0 0 1 1304 681.5 L 1298 681.5  A 2.5 2.5 0 0 1 1295.5 679 L 1295.5 673  Z " stroke-width="1" stroke="#000000" fill="none" stroke-opacity="0.349019607843137" />
</svg>