<?xml version="1.0" encoding="utf-8"?>
<svg version="1.1" xmlns:xlink="http://www.w3.org/1999/xlink" width="1328px" height="794px" xmlns="http://www.w3.org/2000/svg">
  <g transform="matrix(1 0 0 1 -102 -280 )">
    <path d="M 103 283  A 2 2 0 0 1 105 281 L 1429 281  L 1429 1071  A 2 2 0 0 1 1427 1073 L 105 1073  A 2 2 0 0 1 103 1071 L 103 283  Z " fill-rule="nonzero" fill="#ffffff" stroke="none" />
    <path d="M 102.5 283  A 2.5 2.5 0 0 1 105 280.5 L 1429.5 280.5  L 1429.5 1071  A 2.5 2.5 0 0 1 1427 1073.5 L 105 1073.5  A 2.5 2.5 0 0 1 102.5 1071 L 102.5 283  Z " stroke-width="1" stroke="#ec3d52" fill="none" stroke-opacity="0.188235294117647" />
  </g>
</svg>