<?xml version="1.0" encoding="utf-8"?>
<svg version="1.1" xmlns:xlink="http://www.w3.org/1999/xlink" width="12px" height="12px" viewBox="528 652  12 12" xmlns="http://www.w3.org/2000/svg">
  <path d="M 529 654  A 1 1 0 0 1 530 653 L 538 653  A 1 1 0 0 1 539 654 L 539 662  A 1 1 0 0 1 538 663 L 530 663  A 1 1 0 0 1 529 662 L 529 654  Z " fill-rule="nonzero" fill="#ffffff" stroke="none" />
  <path d="M 528.5 654  A 1.5 1.5 0 0 1 530 652.5 L 538 652.5  A 1.5 1.5 0 0 1 539.5 654 L 539.5 662  A 1.5 1.5 0 0 1 538 663.5 L 530 663.5  A 1.5 1.5 0 0 1 528.5 662 L 528.5 654  Z " stroke-width="1" stroke="#000000" fill="none" stroke-opacity="0.349019607843137" />
  <path d="M 530.571428571429 658  L 533.142857142857 660.571428571429  " stroke-width="2.57142857142857" stroke="#000000" fill="none" stroke-opacity="0.349019607843137" />
  <path d="M 533.142857142857 660.571428571429  L 537.428571428571 654.571428571429  " stroke-width="2.57142857142857" stroke="#000000" fill="none" stroke-opacity="0.349019607843137" />
</svg>