<?xml version="1.0" encoding="utf-8"?>
<svg version="1.1" xmlns:xlink="http://www.w3.org/1999/xlink" width="12px" height="12px" viewBox="1294 494  12 12" xmlns="http://www.w3.org/2000/svg">
  <path d="M 1295 496  A 1 1 0 0 1 1296 495 L 1304 495  A 1 1 0 0 1 1305 496 L 1305 504  A 1 1 0 0 1 1304 505 L 1296 505  A 1 1 0 0 1 1295 504 L 1295 496  Z " fill-rule="nonzero" fill="#ffffff" stroke="none" />
  <path d="M 1294.5 496  A 1.5 1.5 0 0 1 1296 494.5 L 1304 494.5  A 1.5 1.5 0 0 1 1305.5 496 L 1305.5 504  A 1.5 1.5 0 0 1 1304 505.5 L 1296 505.5  A 1.5 1.5 0 0 1 1294.5 504 L 1294.5 496  Z " stroke-width="1" stroke="#000000" fill="none" stroke-opacity="0.349019607843137" />
</svg>