<?xml version="1.0" encoding="utf-8"?>
<svg version="1.1" xmlns:xlink="http://www.w3.org/1999/xlink" width="12px" height="12px" viewBox="528 491  12 12" xmlns="http://www.w3.org/2000/svg">
  <path d="M 529 493  A 1 1 0 0 1 530 492 L 538 492  A 1 1 0 0 1 539 493 L 539 501  A 1 1 0 0 1 538 502 L 530 502  A 1 1 0 0 1 529 501 L 529 493  Z " fill-rule="nonzero" fill="#ffffff" stroke="none" />
  <path d="M 528.5 493  A 1.5 1.5 0 0 1 530 491.5 L 538 491.5  A 1.5 1.5 0 0 1 539.5 493 L 539.5 501  A 1.5 1.5 0 0 1 538 502.5 L 530 502.5  A 1.5 1.5 0 0 1 528.5 501 L 528.5 493  Z " stroke-width="1" stroke="#000000" fill="none" stroke-opacity="0.349019607843137" />
</svg>