<?xml version="1.0" encoding="utf-8"?>
<svg version="1.1" xmlns:xlink="http://www.w3.org/1999/xlink" width="12px" height="12px" viewBox="1294 651  12 12" xmlns="http://www.w3.org/2000/svg">
  <path d="M 1295 653  A 1 1 0 0 1 1296 652 L 1304 652  A 1 1 0 0 1 1305 653 L 1305 661  A 1 1 0 0 1 1304 662 L 1296 662  A 1 1 0 0 1 1295 661 L 1295 653  Z " fill-rule="nonzero" fill="#f0f0f0" stroke="none" />
  <path d="M 1294.5 653  A 1.5 1.5 0 0 1 1296 651.5 L 1304 651.5  A 1.5 1.5 0 0 1 1305.5 653 L 1305.5 661  A 1.5 1.5 0 0 1 1304 662.5 L 1296 662.5  A 1.5 1.5 0 0 1 1294.5 661 L 1294.5 653  Z " stroke-width="1" stroke="#000000" fill="none" stroke-opacity="0.349019607843137" />
  <path d="M 1296.57142857143 657  L 1299.14285714286 659.571428571429  " stroke-width="2.57142857142857" stroke="#000000" fill="none" stroke-opacity="0.349019607843137" />
  <path d="M 1299.14285714286 659.571428571429  L 1303.42857142857 653.571428571429  " stroke-width="2.57142857142857" stroke="#000000" fill="none" stroke-opacity="0.349019607843137" />
</svg>