<?xml version="1.0" encoding="utf-8"?>
<svg version="1.1" xmlns:xlink="http://www.w3.org/1999/xlink" width="12px" height="12px" viewBox="1354 772  12 12" xmlns="http://www.w3.org/2000/svg">
  <path d="M 1360 772.5  C 1363.08 772.5  1365.5 774.92  1365.5 778  C 1365.5 781.08  1363.08 783.5  1360 783.5  C 1356.92 783.5  1354.5 781.08  1354.5 778  C 1354.5 774.92  1356.92 772.5  1360 772.5  Z " fill-rule="nonzero" fill="#ffffff" stroke="none" />
  <path d="M 1360 772.5  C 1363.08 772.5  1365.5 774.92  1365.5 778  C 1365.5 781.08  1363.08 783.5  1360 783.5  C 1356.92 783.5  1354.5 781.08  1354.5 778  C 1354.5 774.92  1356.92 772.5  1360 772.5  Z " stroke-width="1" stroke="#1e2a3e" fill="none" stroke-opacity="0.768627450980392" />
  <path d="M 1360 781  C 1358.32 781  1357 779.68  1357 778  C 1357 776.32  1358.32 775  1360 775  C 1361.68 775  1363 776.32  1363 778  C 1363 779.68  1361.68 781  1360 781  " fill-rule="nonzero" fill="#1e2a3e" stroke="none" fill-opacity="0.768627450980392" />
</svg>