<?xml version="1.0" encoding="utf-8"?>
<svg version="1.1" xmlns:xlink="http://www.w3.org/1999/xlink" width="12px" height="12px" viewBox="1354 698  12 12" xmlns="http://www.w3.org/2000/svg">
  <path d="M 1360 698.5  C 1363.08 698.5  1365.5 700.92  1365.5 704  C 1365.5 707.08  1363.08 709.5  1360 709.5  C 1356.92 709.5  1354.5 707.08  1354.5 704  C 1354.5 700.92  1356.92 698.5  1360 698.5  Z " fill-rule="nonzero" fill="#ffffff" stroke="none" />
  <path d="M 1360 698.5  C 1363.08 698.5  1365.5 700.92  1365.5 704  C 1365.5 707.08  1363.08 709.5  1360 709.5  C 1356.92 709.5  1354.5 707.08  1354.5 704  C 1354.5 700.92  1356.92 698.5  1360 698.5  Z " stroke-width="1" stroke="#1e2a3e" fill="none" stroke-opacity="0.768627450980392" />
  <path d="M 1360 707  C 1358.32 707  1357 705.68  1357 704  C 1357 702.32  1358.32 701  1360 701  C 1361.68 701  1363 702.32  1363 704  C 1363 705.68  1361.68 707  1360 707  " fill-rule="nonzero" fill="#1e2a3e" stroke="none" fill-opacity="0.768627450980392" />
</svg>