<?xml version="1.0" encoding="utf-8"?>
<svg version="1.1" xmlns:xlink="http://www.w3.org/1999/xlink" width="12px" height="12px" viewBox="1354 330  12 12" xmlns="http://www.w3.org/2000/svg">
  <path d="M 1360 330.5  C 1363.08 330.5  1365.5 332.92  1365.5 336  C 1365.5 339.08  1363.08 341.5  1360 341.5  C 1356.92 341.5  1354.5 339.08  1354.5 336  C 1354.5 332.92  1356.92 330.5  1360 330.5  Z " fill-rule="nonzero" fill="#ffffff" stroke="none" />
  <path d="M 1360 330.5  C 1363.08 330.5  1365.5 332.92  1365.5 336  C 1365.5 339.08  1363.08 341.5  1360 341.5  C 1356.92 341.5  1354.5 339.08  1354.5 336  C 1354.5 332.92  1356.92 330.5  1360 330.5  Z " stroke-width="1" stroke="#1e2a3e" fill="none" stroke-opacity="0.768627450980392" />
  <path d="M 1360 339  C 1358.32 339  1357 337.68  1357 336  C 1357 334.32  1358.32 333  1360 333  C 1361.68 333  1363 334.32  1363 336  C 1363 337.68  1361.68 339  1360 339  " fill-rule="nonzero" fill="#1e2a3e" stroke="none" fill-opacity="0.768627450980392" />
</svg>