<?xml version="1.0" encoding="utf-8"?>
<svg version="1.1" xmlns:xlink="http://www.w3.org/1999/xlink" width="12px" height="12px" viewBox="1354 625  12 12" xmlns="http://www.w3.org/2000/svg">
  <path d="M 1360 625.5  C 1363.08 625.5  1365.5 627.92  1365.5 631  C 1365.5 634.08  1363.08 636.5  1360 636.5  C 1356.92 636.5  1354.5 634.08  1354.5 631  C 1354.5 627.92  1356.92 625.5  1360 625.5  Z " fill-rule="nonzero" fill="#f0f0f0" stroke="none" />
  <path d="M 1360 625.5  C 1363.08 625.5  1365.5 627.92  1365.5 631  C 1365.5 634.08  1363.08 636.5  1360 636.5  C 1356.92 636.5  1354.5 634.08  1354.5 631  C 1354.5 627.92  1356.92 625.5  1360 625.5  Z " stroke-width="1" stroke="#1e2a3e" fill="none" stroke-opacity="0.768627450980392" />
  <path d="M 1360 634  C 1358.32 634  1357 632.68  1357 631  C 1357 629.32  1358.32 628  1360 628  C 1361.68 628  1363 629.32  1363 631  C 1363 632.68  1361.68 634  1360 634  " fill-rule="nonzero" fill="#1e2a3e" stroke="none" fill-opacity="0.768627450980392" />
</svg>