<?xml version="1.0" encoding="utf-8"?>
<svg version="1.1" xmlns:xlink="http://www.w3.org/1999/xlink" width="12px" height="12px" viewBox="1354 550  12 12" xmlns="http://www.w3.org/2000/svg">
  <path d="M 1360 550.5  C 1363.08 550.5  1365.5 552.92  1365.5 556  C 1365.5 559.08  1363.08 561.5  1360 561.5  C 1356.92 561.5  1354.5 559.08  1354.5 556  C 1354.5 552.92  1356.92 550.5  1360 550.5  Z " fill-rule="nonzero" fill="#f0f0f0" stroke="none" />
  <path d="M 1360 550.5  C 1363.08 550.5  1365.5 552.92  1365.5 556  C 1365.5 559.08  1363.08 561.5  1360 561.5  C 1356.92 561.5  1354.5 559.08  1354.5 556  C 1354.5 552.92  1356.92 550.5  1360 550.5  Z " stroke-width="1" stroke="#1e2a3e" fill="none" stroke-opacity="0.768627450980392" />
  <path d="M 1360 559  C 1358.32 559  1357 557.68  1357 556  C 1357 554.32  1358.32 553  1360 553  C 1361.68 553  1363 554.32  1363 556  C 1363 557.68  1361.68 559  1360 559  " fill-rule="nonzero" fill="#1e2a3e" stroke="none" fill-opacity="0.768627450980392" />
</svg>