<?xml version="1.0" encoding="utf-8"?>
<svg version="1.1" xmlns:xlink="http://www.w3.org/1999/xlink" width="12px" height="12px" viewBox="1354 479  12 12" xmlns="http://www.w3.org/2000/svg">
  <path d="M 1360 479.5  C 1363.08 479.5  1365.5 481.92  1365.5 485  C 1365.5 488.08  1363.08 490.5  1360 490.5  C 1356.92 490.5  1354.5 488.08  1354.5 485  C 1354.5 481.92  1356.92 479.5  1360 479.5  Z " fill-rule="nonzero" fill="#f0f0f0" stroke="none" />
  <path d="M 1360 479.5  C 1363.08 479.5  1365.5 481.92  1365.5 485  C 1365.5 488.08  1363.08 490.5  1360 490.5  C 1356.92 490.5  1354.5 488.08  1354.5 485  C 1354.5 481.92  1356.92 479.5  1360 479.5  Z " stroke-width="1" stroke="#1e2a3e" fill="none" stroke-opacity="0.768627450980392" />
  <path d="M 1360 488  C 1358.32 488  1357 486.68  1357 485  C 1357 483.32  1358.32 482  1360 482  C 1361.68 482  1363 483.32  1363 485  C 1363 486.68  1361.68 488  1360 488  " fill-rule="nonzero" fill="#1e2a3e" stroke="none" fill-opacity="0.768627450980392" />
</svg>