<?xml version="1.0" encoding="utf-8"?>
<svg version="1.1" xmlns:xlink="http://www.w3.org/1999/xlink" width="12px" height="12px" viewBox="1354 920  12 12" xmlns="http://www.w3.org/2000/svg">
  <path d="M 1360 920.5  C 1363.08 920.5  1365.5 922.92  1365.5 926  C 1365.5 929.08  1363.08 931.5  1360 931.5  C 1356.92 931.5  1354.5 929.08  1354.5 926  C 1354.5 922.92  1356.92 920.5  1360 920.5  Z " fill-rule="nonzero" fill="#ffffff" stroke="none" />
  <path d="M 1360 920.5  C 1363.08 920.5  1365.5 922.92  1365.5 926  C 1365.5 929.08  1363.08 931.5  1360 931.5  C 1356.92 931.5  1354.5 929.08  1354.5 926  C 1354.5 922.92  1356.92 920.5  1360 920.5  Z " stroke-width="1" stroke="#1e2a3e" fill="none" stroke-opacity="0.768627450980392" />
  <path d="M 1360 929  C 1358.32 929  1357 927.68  1357 926  C 1357 924.32  1358.32 923  1360 923  C 1361.68 923  1363 924.32  1363 926  C 1363 927.68  1361.68 929  1360 929  " fill-rule="nonzero" fill="#1e2a3e" stroke="none" fill-opacity="0.768627450980392" />
</svg>