<?xml version="1.0" encoding="utf-8"?>
<svg version="1.1" xmlns:xlink="http://www.w3.org/1999/xlink" width="12px" height="12px" viewBox="1354 404  12 12" xmlns="http://www.w3.org/2000/svg">
  <path d="M 1360 404.5  C 1363.08 404.5  1365.5 406.92  1365.5 410  C 1365.5 413.08  1363.08 415.5  1360 415.5  C 1356.92 415.5  1354.5 413.08  1354.5 410  C 1354.5 406.92  1356.92 404.5  1360 404.5  Z " fill-rule="nonzero" fill="#f0f0f0" stroke="none" />
  <path d="M 1360 404.5  C 1363.08 404.5  1365.5 406.92  1365.5 410  C 1365.5 413.08  1363.08 415.5  1360 415.5  C 1356.92 415.5  1354.5 413.08  1354.5 410  C 1354.5 406.92  1356.92 404.5  1360 404.5  Z " stroke-width="1" stroke="#1e2a3e" fill="none" stroke-opacity="0.768627450980392" />
  <path d="M 1360 413  C 1358.32 413  1357 411.68  1357 410  C 1357 408.32  1358.32 407  1360 407  C 1361.68 407  1363 408.32  1363 410  C 1363 411.68  1361.68 413  1360 413  " fill-rule="nonzero" fill="#1e2a3e" stroke="none" fill-opacity="0.768627450980392" />
</svg>