<?xml version="1.0" encoding="utf-8"?>
<svg version="1.1" xmlns:xlink="http://www.w3.org/1999/xlink" width="12px" height="12px" viewBox="1159 257  12 12" xmlns="http://www.w3.org/2000/svg">
  <path d="M 1160 260  A 2 2 0 0 1 1162 258 L 1168 258  A 2 2 0 0 1 1170 260 L 1170 266  A 2 2 0 0 1 1168 268 L 1162 268  A 2 2 0 0 1 1160 266 L 1160 260  Z " fill-rule="nonzero" fill="#ffffff" stroke="none" />
  <path d="M 1159.5 260  A 2.5 2.5 0 0 1 1162 257.5 L 1168 257.5  A 2.5 2.5 0 0 1 1170.5 260 L 1170.5 266  A 2.5 2.5 0 0 1 1168 268.5 L 1162 268.5  A 2.5 2.5 0 0 1 1159.5 266 L 1159.5 260  Z " stroke-width="1" stroke="#000000" fill="none" stroke-opacity="0.349019607843137" />
  <path d="M 1161.57142857143 263  L 1164.14285714286 265.571428571429  " stroke-width="2.57142857142857" stroke="#000000" fill="none" stroke-opacity="0.349019607843137" />
  <path d="M 1164.14285714286 265.571428571429  L 1168.42857142857 259.571428571429  " stroke-width="2.57142857142857" stroke="#000000" fill="none" stroke-opacity="0.349019607843137" />
</svg>