<?xml version="1.0" encoding="utf-8"?>
<svg version="1.1" xmlns:xlink="http://www.w3.org/1999/xlink" width="12px" height="12px" viewBox="1159 292  12 12" xmlns="http://www.w3.org/2000/svg">
  <path d="M 1160 295  A 2 2 0 0 1 1162 293 L 1168 293  A 2 2 0 0 1 1170 295 L 1170 301  A 2 2 0 0 1 1168 303 L 1162 303  A 2 2 0 0 1 1160 301 L 1160 295  Z " fill-rule="nonzero" fill="#ffffff" stroke="none" />
  <path d="M 1159.5 295  A 2.5 2.5 0 0 1 1162 292.5 L 1168 292.5  A 2.5 2.5 0 0 1 1170.5 295 L 1170.5 301  A 2.5 2.5 0 0 1 1168 303.5 L 1162 303.5  A 2.5 2.5 0 0 1 1159.5 301 L 1159.5 295  Z " stroke-width="1" stroke="#000000" fill="none" stroke-opacity="0.349019607843137" />
  <path d="M 1161.57142857143 298  L 1164.14285714286 300.571428571429  " stroke-width="2.57142857142857" stroke="#000000" fill="none" stroke-opacity="0.349019607843137" />
  <path d="M 1164.14285714286 300.571428571429  L 1168.42857142857 294.571428571429  " stroke-width="2.57142857142857" stroke="#000000" fill="none" stroke-opacity="0.349019607843137" />
</svg>