<?xml version="1.0" encoding="utf-8"?>
<svg version="1.1" xmlns:xlink="http://www.w3.org/1999/xlink" width="12px" height="12px" viewBox="1159 328  12 12" xmlns="http://www.w3.org/2000/svg">
  <path d="M 1160 331  A 2 2 0 0 1 1162 329 L 1168 329  A 2 2 0 0 1 1170 331 L 1170 337  A 2 2 0 0 1 1168 339 L 1162 339  A 2 2 0 0 1 1160 337 L 1160 331  Z " fill-rule="nonzero" fill="#ffffff" stroke="none" />
  <path d="M 1159.5 331  A 2.5 2.5 0 0 1 1162 328.5 L 1168 328.5  A 2.5 2.5 0 0 1 1170.5 331 L 1170.5 337  A 2.5 2.5 0 0 1 1168 339.5 L 1162 339.5  A 2.5 2.5 0 0 1 1159.5 337 L 1159.5 331  Z " stroke-width="1" stroke="#000000" fill="none" stroke-opacity="0.349019607843137" />
</svg>