<?xml version="1.0" encoding="utf-8"?>
<svg version="1.1" xmlns:xlink="http://www.w3.org/1999/xlink" width="12px" height="12px" viewBox="1159 397  12 12" xmlns="http://www.w3.org/2000/svg">
  <path d="M 1160 400  A 2 2 0 0 1 1162 398 L 1168 398  A 2 2 0 0 1 1170 400 L 1170 406  A 2 2 0 0 1 1168 408 L 1162 408  A 2 2 0 0 1 1160 406 L 1160 400  Z " fill-rule="nonzero" fill="#f0f0f0" stroke="none" />
  <path d="M 1159.5 400  A 2.5 2.5 0 0 1 1162 397.5 L 1168 397.5  A 2.5 2.5 0 0 1 1170.5 400 L 1170.5 406  A 2.5 2.5 0 0 1 1168 408.5 L 1162 408.5  A 2.5 2.5 0 0 1 1159.5 406 L 1159.5 400  Z " stroke-width="1" stroke="#000000" fill="none" stroke-opacity="0.349019607843137" />
</svg>