<?xml version="1.0" encoding="utf-8"?>
<svg version="1.1" xmlns:xlink="http://www.w3.org/1999/xlink" width="12px" height="12px" viewBox="1159 364  12 12" xmlns="http://www.w3.org/2000/svg">
  <path d="M 1160 367  A 2 2 0 0 1 1162 365 L 1168 365  A 2 2 0 0 1 1170 367 L 1170 373  A 2 2 0 0 1 1168 375 L 1162 375  A 2 2 0 0 1 1160 373 L 1160 367  Z " fill-rule="nonzero" fill="#ffffff" stroke="none" />
  <path d="M 1159.5 367  A 2.5 2.5 0 0 1 1162 364.5 L 1168 364.5  A 2.5 2.5 0 0 1 1170.5 367 L 1170.5 373  A 2.5 2.5 0 0 1 1168 375.5 L 1162 375.5  A 2.5 2.5 0 0 1 1159.5 373 L 1159.5 367  Z " stroke-width="1" stroke="#000000" fill="none" stroke-opacity="0.349019607843137" />
</svg>