<?xml version="1.0" encoding="utf-8"?>
<svg version="1.1" xmlns:xlink="http://www.w3.org/1999/xlink" width="665px" height="70px" viewBox="839 1167  665 70" xmlns="http://www.w3.org/2000/svg">
  <path d="M 840 1182  A 14 14 0 0 1 854 1168 L 1503 1168  L 1503 1222  A 14 14 0 0 1 1489 1236 L 854 1236  A 14 14 0 0 1 840 1222 L 840 1182  Z " fill-rule="nonzero" fill="#f0f0f0" stroke="none" />
  <path d="M 839.5 1182  A 14.5 14.5 0 0 1 854 1167.5 L 1503.5 1167.5  L 1503.5 1222  A 14.5 14.5 0 0 1 1489 1236.5 L 854 1236.5  A 14.5 14.5 0 0 1 839.5 1222 L 839.5 1182  Z " stroke-width="1" stroke="#d7d7d7" fill="none" stroke-opacity="0.498039215686275" />
</svg>