<?xml version="1.0" encoding="utf-8"?>
<svg version="1.1" xmlns:xlink="http://www.w3.org/1999/xlink" width="1384px" height="509px" xmlns="http://www.w3.org/2000/svg">
  <g transform="matrix(1 0 0 1 -120 -1598 )">
    <path d="M 121 1613  A 14 14 0 0 1 135 1599 L 1489 1599  A 14 14 0 0 1 1503 1613 L 1503 2092  A 14 14 0 0 1 1489 2106 L 135 2106  A 14 14 0 0 1 121 2092 L 121 1613  Z " fill-rule="nonzero" fill="#fefdf6" stroke="none" fill-opacity="0.403921568627451" />
    <path d="M 120.5 1613  A 14.5 14.5 0 0 1 135 1598.5 L 1489 1598.5  A 14.5 14.5 0 0 1 1503.5 1613 L 1503.5 2092  A 14.5 14.5 0 0 1 1489 2106.5 L 135 2106.5  A 14.5 14.5 0 0 1 120.5 2092 L 120.5 1613  Z " stroke-width="1" stroke="#eaaf57" fill="none" stroke-opacity="0.901960784313726" />
  </g>
</svg>