<?xml version="1.0" encoding="utf-8"?>
<svg version="1.1" xmlns:xlink="http://www.w3.org/1999/xlink" width="661px" height="70px" viewBox="781 1065  661 70" xmlns="http://www.w3.org/2000/svg">
  <path d="M 782 1080  A 14 14 0 0 1 796 1066 L 1441 1066  L 1441 1120  A 14 14 0 0 1 1427 1134 L 796 1134  A 14 14 0 0 1 782 1120 L 782 1080  Z " fill-rule="nonzero" fill="#f0f0f0" stroke="none" />
  <path d="M 781.5 1080  A 14.5 14.5 0 0 1 796 1065.5 L 1441.5 1065.5  L 1441.5 1120  A 14.5 14.5 0 0 1 1427 1134.5 L 796 1134.5  A 14.5 14.5 0 0 1 781.5 1120 L 781.5 1080  Z " stroke-width="1" stroke="#d7d7d7" fill="none" stroke-opacity="0.498039215686275" />
</svg>