<?xml version="1.0" encoding="utf-8"?>
<svg version="1.1" xmlns:xlink="http://www.w3.org/1999/xlink" width="12px" height="12px" viewBox="1192 1146  12 12" xmlns="http://www.w3.org/2000/svg">
  <path d="M 1192.5 1149  A 2.5 2.5 0 0 1 1195 1146.5 L 1201 1146.5  A 2.5 2.5 0 0 1 1203.5 1149 L 1203.5 1155  A 2.5 2.5 0 0 1 1201 1157.5 L 1195 1157.5  A 2.5 2.5 0 0 1 1192.5 1155 L 1192.5 1149  Z " fill-rule="nonzero" fill="#ffffff" stroke="none" />
  <path d="M 1192.5 1149  A 2.5 2.5 0 0 1 1195 1146.5 L 1201 1146.5  A 2.5 2.5 0 0 1 1203.5 1149 L 1203.5 1155  A 2.5 2.5 0 0 1 1201 1157.5 L 1195 1157.5  A 2.5 2.5 0 0 1 1192.5 1155 L 1192.5 1149  Z " stroke-width="1" stroke="#f60068" fill="none" />
  <path d="M 1194.57142857143 1152  L 1197.14285714286 1154.57142857143  " stroke-width="2.57142857142857" stroke="#f60068" fill="none" />
  <path d="M 1197.14285714286 1154.57142857143  L 1201.42857142857 1148.57142857143  " stroke-width="2.57142857142857" stroke="#f60068" fill="none" />
</svg>