<?xml version="1.0" encoding="utf-8"?>
<svg version="1.1" xmlns:xlink="http://www.w3.org/1999/xlink" width="319px" height="38px" viewBox="1589 204  319 38" xmlns="http://www.w3.org/2000/svg">
  <path d="M 1590 214  A 9 9 0 0 1 1599 205 L 1898 205  A 9 9 0 0 1 1907 214 L 1907 232  A 9 9 0 0 1 1898 241 L 1599 241  A 9 9 0 0 1 1590 232 L 1590 214  Z " fill-rule="nonzero" fill="#ffffff" stroke="none" />
  <path d="M 1589.5 214  A 9.5 9.5 0 0 1 1599 204.5 L 1898 204.5  A 9.5 9.5 0 0 1 1907.5 214 L 1907.5 232  A 9.5 9.5 0 0 1 1898 241.5 L 1599 241.5  A 9.5 9.5 0 0 1 1589.5 232 L 1589.5 214  Z " stroke-width="1" stroke="#aaaaaa" fill="none" stroke-opacity="0.498039215686275" />
</svg>