<?xml version="1.0" encoding="utf-8"?>
<svg version="1.1" xmlns:xlink="http://www.w3.org/1999/xlink" width="12px" height="12px" viewBox="1207 300  12 12" xmlns="http://www.w3.org/2000/svg">
  <path d="M 1208 303  A 2 2 0 0 1 1210 301 L 1216 301  A 2 2 0 0 1 1218 303 L 1218 309  A 2 2 0 0 1 1216 311 L 1210 311  A 2 2 0 0 1 1208 309 L 1208 303  Z " fill-rule="nonzero" fill="#f0f0f0" stroke="none" />
  <path d="M 1207.5 303  A 2.5 2.5 0 0 1 1210 300.5 L 1216 300.5  A 2.5 2.5 0 0 1 1218.5 303 L 1218.5 309  A 2.5 2.5 0 0 1 1216 311.5 L 1210 311.5  A 2.5 2.5 0 0 1 1207.5 309 L 1207.5 303  Z " stroke-width="1" stroke="#000000" fill="none" stroke-opacity="0.349019607843137" />
</svg>