<?xml version="1.0" encoding="utf-8"?>
<svg version="1.1" xmlns:xlink="http://www.w3.org/1999/xlink" width="12px" height="12px" viewBox="1207 511  12 12" xmlns="http://www.w3.org/2000/svg">
  <path d="M 1208 514  A 2 2 0 0 1 1210 512 L 1216 512  A 2 2 0 0 1 1218 514 L 1218 520  A 2 2 0 0 1 1216 522 L 1210 522  A 2 2 0 0 1 1208 520 L 1208 514  Z " fill-rule="nonzero" fill="#ffffff" stroke="none" />
  <path d="M 1207.5 514  A 2.5 2.5 0 0 1 1210 511.5 L 1216 511.5  A 2.5 2.5 0 0 1 1218.5 514 L 1218.5 520  A 2.5 2.5 0 0 1 1216 522.5 L 1210 522.5  A 2.5 2.5 0 0 1 1207.5 520 L 1207.5 514  Z " stroke-width="1" stroke="#000000" fill="none" stroke-opacity="0.349019607843137" />
</svg>