<?xml version="1.0" encoding="utf-8"?>
<svg version="1.1" xmlns:xlink="http://www.w3.org/1999/xlink" width="12px" height="12px" viewBox="1207 616  12 12" xmlns="http://www.w3.org/2000/svg">
  <path d="M 1208 619  A 2 2 0 0 1 1210 617 L 1216 617  A 2 2 0 0 1 1218 619 L 1218 625  A 2 2 0 0 1 1216 627 L 1210 627  A 2 2 0 0 1 1208 625 L 1208 619  Z " fill-rule="nonzero" fill="#f0f0f0" stroke="none" />
  <path d="M 1207.5 619  A 2.5 2.5 0 0 1 1210 616.5 L 1216 616.5  A 2.5 2.5 0 0 1 1218.5 619 L 1218.5 625  A 2.5 2.5 0 0 1 1216 627.5 L 1210 627.5  A 2.5 2.5 0 0 1 1207.5 625 L 1207.5 619  Z " stroke-width="1" stroke="#000000" fill="none" stroke-opacity="0.349019607843137" />
</svg>