<?xml version="1.0" encoding="utf-8"?>
<svg version="1.1" xmlns:xlink="http://www.w3.org/1999/xlink" width="12px" height="12px" viewBox="1207 756  12 12" xmlns="http://www.w3.org/2000/svg">
  <path d="M 1208 759  A 2 2 0 0 1 1210 757 L 1216 757  A 2 2 0 0 1 1218 759 L 1218 765  A 2 2 0 0 1 1216 767 L 1210 767  A 2 2 0 0 1 1208 765 L 1208 759  Z " fill-rule="nonzero" fill="#ffffff" stroke="none" />
  <path d="M 1207.5 759  A 2.5 2.5 0 0 1 1210 756.5 L 1216 756.5  A 2.5 2.5 0 0 1 1218.5 759 L 1218.5 765  A 2.5 2.5 0 0 1 1216 767.5 L 1210 767.5  A 2.5 2.5 0 0 1 1207.5 765 L 1207.5 759  Z " stroke-width="1" stroke="#000000" fill="none" stroke-opacity="0.349019607843137" />
</svg>