<?xml version="1.0" encoding="utf-8"?>
<svg version="1.1" xmlns:xlink="http://www.w3.org/1999/xlink" width="12px" height="12px" viewBox="1207 792  12 12" xmlns="http://www.w3.org/2000/svg">
  <path d="M 1208 795  A 2 2 0 0 1 1210 793 L 1216 793  A 2 2 0 0 1 1218 795 L 1218 801  A 2 2 0 0 1 1216 803 L 1210 803  A 2 2 0 0 1 1208 801 L 1208 795  Z " fill-rule="nonzero" fill="#ffffff" stroke="none" />
  <path d="M 1207.5 795  A 2.5 2.5 0 0 1 1210 792.5 L 1216 792.5  A 2.5 2.5 0 0 1 1218.5 795 L 1218.5 801  A 2.5 2.5 0 0 1 1216 803.5 L 1210 803.5  A 2.5 2.5 0 0 1 1207.5 801 L 1207.5 795  Z " stroke-width="1" stroke="#000000" fill="none" stroke-opacity="0.349019607843137" />
  <path d="M 1209.57142857143 798  L 1212.14285714286 800.571428571429  " stroke-width="2.57142857142857" stroke="#000000" fill="none" stroke-opacity="0.349019607843137" />
  <path d="M 1212.14285714286 800.571428571429  L 1216.42857142857 794.571428571429  " stroke-width="2.57142857142857" stroke="#000000" fill="none" stroke-opacity="0.349019607843137" />
</svg>