<?xml version="1.0" encoding="utf-8"?>
<svg version="1.1" xmlns:xlink="http://www.w3.org/1999/xlink" width="12px" height="12px" viewBox="1207 1071  12 12" xmlns="http://www.w3.org/2000/svg">
  <path d="M 1208 1074  A 2 2 0 0 1 1210 1072 L 1216 1072  A 2 2 0 0 1 1218 1074 L 1218 1080  A 2 2 0 0 1 1216 1082 L 1210 1082  A 2 2 0 0 1 1208 1080 L 1208 1074  Z " fill-rule="nonzero" fill="#f0f0f0" stroke="none" />
  <path d="M 1207.5 1074  A 2.5 2.5 0 0 1 1210 1071.5 L 1216 1071.5  A 2.5 2.5 0 0 1 1218.5 1074 L 1218.5 1080  A 2.5 2.5 0 0 1 1216 1082.5 L 1210 1082.5  A 2.5 2.5 0 0 1 1207.5 1080 L 1207.5 1074  Z " stroke-width="1" stroke="#000000" fill="none" stroke-opacity="0.349019607843137" />
</svg>