<?xml version="1.0" encoding="utf-8"?>
<svg version="1.1" xmlns:xlink="http://www.w3.org/1999/xlink" width="12px" height="12px" viewBox="1207 337  12 12" xmlns="http://www.w3.org/2000/svg">
  <path d="M 1208 340  A 2 2 0 0 1 1210 338 L 1216 338  A 2 2 0 0 1 1218 340 L 1218 346  A 2 2 0 0 1 1216 348 L 1210 348  A 2 2 0 0 1 1208 346 L 1208 340  Z " fill-rule="nonzero" fill="#f0f0f0" stroke="none" />
  <path d="M 1207.5 340  A 2.5 2.5 0 0 1 1210 337.5 L 1216 337.5  A 2.5 2.5 0 0 1 1218.5 340 L 1218.5 346  A 2.5 2.5 0 0 1 1216 348.5 L 1210 348.5  A 2.5 2.5 0 0 1 1207.5 346 L 1207.5 340  Z " stroke-width="1" stroke="#000000" fill="none" stroke-opacity="0.349019607843137" />
</svg>