<?xml version="1.0" encoding="utf-8"?>
<svg version="1.1" xmlns:xlink="http://www.w3.org/1999/xlink" width="12px" height="12px" viewBox="1207 406  12 12" xmlns="http://www.w3.org/2000/svg">
  <path d="M 1208 409  A 2 2 0 0 1 1210 407 L 1216 407  A 2 2 0 0 1 1218 409 L 1218 415  A 2 2 0 0 1 1216 417 L 1210 417  A 2 2 0 0 1 1208 415 L 1208 409  Z " fill-rule="nonzero" fill="#f0f0f0" stroke="none" />
  <path d="M 1207.5 409  A 2.5 2.5 0 0 1 1210 406.5 L 1216 406.5  A 2.5 2.5 0 0 1 1218.5 409 L 1218.5 415  A 2.5 2.5 0 0 1 1216 417.5 L 1210 417.5  A 2.5 2.5 0 0 1 1207.5 415 L 1207.5 409  Z " stroke-width="1" stroke="#000000" fill="none" stroke-opacity="0.349019607843137" />
</svg>