<?xml version="1.0" encoding="utf-8"?>
<svg version="1.1" xmlns:xlink="http://www.w3.org/1999/xlink" width="12px" height="12px" viewBox="1207 477  12 12" xmlns="http://www.w3.org/2000/svg">
  <path d="M 1208 480  A 2 2 0 0 1 1210 478 L 1216 478  A 2 2 0 0 1 1218 480 L 1218 486  A 2 2 0 0 1 1216 488 L 1210 488  A 2 2 0 0 1 1208 486 L 1208 480  Z " fill-rule="nonzero" fill="#f0f0f0" stroke="none" />
  <path d="M 1207.5 480  A 2.5 2.5 0 0 1 1210 477.5 L 1216 477.5  A 2.5 2.5 0 0 1 1218.5 480 L 1218.5 486  A 2.5 2.5 0 0 1 1216 488.5 L 1210 488.5  A 2.5 2.5 0 0 1 1207.5 486 L 1207.5 480  Z " stroke-width="1" stroke="#000000" fill="none" stroke-opacity="0.349019607843137" />
</svg>