<?xml version="1.0" encoding="utf-8"?>
<svg version="1.1" xmlns:xlink="http://www.w3.org/1999/xlink" width="12px" height="12px" viewBox="1207 546  12 12" xmlns="http://www.w3.org/2000/svg">
  <path d="M 1208 549  A 2 2 0 0 1 1210 547 L 1216 547  A 2 2 0 0 1 1218 549 L 1218 555  A 2 2 0 0 1 1216 557 L 1210 557  A 2 2 0 0 1 1208 555 L 1208 549  Z " fill-rule="nonzero" fill="#f0f0f0" stroke="none" />
  <path d="M 1207.5 549  A 2.5 2.5 0 0 1 1210 546.5 L 1216 546.5  A 2.5 2.5 0 0 1 1218.5 549 L 1218.5 555  A 2.5 2.5 0 0 1 1216 557.5 L 1210 557.5  A 2.5 2.5 0 0 1 1207.5 555 L 1207.5 549  Z " stroke-width="1" stroke="#000000" fill="none" stroke-opacity="0.349019607843137" />
</svg>