<?xml version="1.0" encoding="utf-8"?>
<svg version="1.1" xmlns:xlink="http://www.w3.org/1999/xlink" width="12px" height="12px" viewBox="1207 581  12 12" xmlns="http://www.w3.org/2000/svg">
  <path d="M 1208 584  A 2 2 0 0 1 1210 582 L 1216 582  A 2 2 0 0 1 1218 584 L 1218 590  A 2 2 0 0 1 1216 592 L 1210 592  A 2 2 0 0 1 1208 590 L 1208 584  Z " fill-rule="nonzero" fill="#ffffff" stroke="none" />
  <path d="M 1207.5 584  A 2.5 2.5 0 0 1 1210 581.5 L 1216 581.5  A 2.5 2.5 0 0 1 1218.5 584 L 1218.5 590  A 2.5 2.5 0 0 1 1216 592.5 L 1210 592.5  A 2.5 2.5 0 0 1 1207.5 590 L 1207.5 584  Z " stroke-width="1" stroke="#000000" fill="none" stroke-opacity="0.349019607843137" />
  <path d="M 1209.57142857143 587  L 1212.14285714286 589.571428571429  " stroke-width="2.57142857142857" stroke="#000000" fill="none" stroke-opacity="0.349019607843137" />
  <path d="M 1212.14285714286 589.571428571429  L 1216.42857142857 583.571428571429  " stroke-width="2.57142857142857" stroke="#000000" fill="none" stroke-opacity="0.349019607843137" />
</svg>