<?xml version="1.0" encoding="utf-8"?>
<svg version="1.1" xmlns:xlink="http://www.w3.org/1999/xlink" width="12px" height="12px" viewBox="1207 651  12 12" xmlns="http://www.w3.org/2000/svg">
  <path d="M 1208 654  A 2 2 0 0 1 1210 652 L 1216 652  A 2 2 0 0 1 1218 654 L 1218 660  A 2 2 0 0 1 1216 662 L 1210 662  A 2 2 0 0 1 1208 660 L 1208 654  Z " fill-rule="nonzero" fill="#ffffff" stroke="none" />
  <path d="M 1207.5 654  A 2.5 2.5 0 0 1 1210 651.5 L 1216 651.5  A 2.5 2.5 0 0 1 1218.5 654 L 1218.5 660  A 2.5 2.5 0 0 1 1216 662.5 L 1210 662.5  A 2.5 2.5 0 0 1 1207.5 660 L 1207.5 654  Z " stroke-width="1" stroke="#000000" fill="none" stroke-opacity="0.349019607843137" />
</svg>