<?xml version="1.0" encoding="utf-8"?>
<svg version="1.1" xmlns:xlink="http://www.w3.org/1999/xlink" width="12px" height="12px" viewBox="1207 826  12 12" xmlns="http://www.w3.org/2000/svg">
  <path d="M 1208 829  A 2 2 0 0 1 1210 827 L 1216 827  A 2 2 0 0 1 1218 829 L 1218 835  A 2 2 0 0 1 1216 837 L 1210 837  A 2 2 0 0 1 1208 835 L 1208 829  Z " fill-rule="nonzero" fill="#f0f0f0" stroke="none" />
  <path d="M 1207.5 829  A 2.5 2.5 0 0 1 1210 826.5 L 1216 826.5  A 2.5 2.5 0 0 1 1218.5 829 L 1218.5 835  A 2.5 2.5 0 0 1 1216 837.5 L 1210 837.5  A 2.5 2.5 0 0 1 1207.5 835 L 1207.5 829  Z " stroke-width="1" stroke="#000000" fill="none" stroke-opacity="0.349019607843137" />
</svg>