<?xml version="1.0" encoding="utf-8"?>
<svg version="1.1" xmlns:xlink="http://www.w3.org/1999/xlink" width="12px" height="12px" viewBox="1207 930  12 12" xmlns="http://www.w3.org/2000/svg">
  <path d="M 1208 933  A 2 2 0 0 1 1210 931 L 1216 931  A 2 2 0 0 1 1218 933 L 1218 939  A 2 2 0 0 1 1216 941 L 1210 941  A 2 2 0 0 1 1208 939 L 1208 933  Z " fill-rule="nonzero" fill="#f0f0f0" stroke="none" />
  <path d="M 1207.5 933  A 2.5 2.5 0 0 1 1210 930.5 L 1216 930.5  A 2.5 2.5 0 0 1 1218.5 933 L 1218.5 939  A 2.5 2.5 0 0 1 1216 941.5 L 1210 941.5  A 2.5 2.5 0 0 1 1207.5 939 L 1207.5 933  Z " stroke-width="1" stroke="#000000" fill="none" stroke-opacity="0.349019607843137" />
  <path d="M 1209.57142857143 936  L 1212.14285714286 938.571428571429  " stroke-width="2.57142857142857" stroke="#000000" fill="none" stroke-opacity="0.349019607843137" />
  <path d="M 1212.14285714286 938.571428571429  L 1216.42857142857 932.571428571429  " stroke-width="2.57142857142857" stroke="#000000" fill="none" stroke-opacity="0.349019607843137" />
</svg>