<?xml version="1.0" encoding="utf-8"?>
<svg version="1.1" xmlns:xlink="http://www.w3.org/1999/xlink" width="12px" height="12px" viewBox="1207 965  12 12" xmlns="http://www.w3.org/2000/svg">
  <path d="M 1208 968  A 2 2 0 0 1 1210 966 L 1216 966  A 2 2 0 0 1 1218 968 L 1218 974  A 2 2 0 0 1 1216 976 L 1210 976  A 2 2 0 0 1 1208 974 L 1208 968  Z " fill-rule="nonzero" fill="#ffffff" stroke="none" />
  <path d="M 1207.5 968  A 2.5 2.5 0 0 1 1210 965.5 L 1216 965.5  A 2.5 2.5 0 0 1 1218.5 968 L 1218.5 974  A 2.5 2.5 0 0 1 1216 976.5 L 1210 976.5  A 2.5 2.5 0 0 1 1207.5 974 L 1207.5 968  Z " stroke-width="1" stroke="#000000" fill="none" stroke-opacity="0.349019607843137" />
</svg>