<?xml version="1.0" encoding="utf-8"?>
<svg version="1.1" xmlns:xlink="http://www.w3.org/1999/xlink" width="12px" height="12px" viewBox="1207 1036  12 12" xmlns="http://www.w3.org/2000/svg">
  <path d="M 1208 1039  A 2 2 0 0 1 1210 1037 L 1216 1037  A 2 2 0 0 1 1218 1039 L 1218 1045  A 2 2 0 0 1 1216 1047 L 1210 1047  A 2 2 0 0 1 1208 1045 L 1208 1039  Z " fill-rule="nonzero" fill="#ffffff" stroke="none" />
  <path d="M 1207.5 1039  A 2.5 2.5 0 0 1 1210 1036.5 L 1216 1036.5  A 2.5 2.5 0 0 1 1218.5 1039 L 1218.5 1045  A 2.5 2.5 0 0 1 1216 1047.5 L 1210 1047.5  A 2.5 2.5 0 0 1 1207.5 1045 L 1207.5 1039  Z " stroke-width="1" stroke="#000000" fill="none" stroke-opacity="0.349019607843137" />
  <path d="M 1209.57142857143 1042  L 1212.14285714286 1044.57142857143  " stroke-width="2.57142857142857" stroke="#000000" fill="none" stroke-opacity="0.349019607843137" />
  <path d="M 1212.14285714286 1044.57142857143  L 1216.42857142857 1038.57142857143  " stroke-width="2.57142857142857" stroke="#000000" fill="none" stroke-opacity="0.349019607843137" />
</svg>