<?xml version="1.0" encoding="utf-8"?>
<svg version="1.1" xmlns:xlink="http://www.w3.org/1999/xlink" width="12px" height="12px" viewBox="1207 1176  12 12" xmlns="http://www.w3.org/2000/svg">
  <path d="M 1208 1179  A 2 2 0 0 1 1210 1177 L 1216 1177  A 2 2 0 0 1 1218 1179 L 1218 1185  A 2 2 0 0 1 1216 1187 L 1210 1187  A 2 2 0 0 1 1208 1185 L 1208 1179  Z " fill-rule="nonzero" fill="#f0f0f0" stroke="none" />
  <path d="M 1207.5 1179  A 2.5 2.5 0 0 1 1210 1176.5 L 1216 1176.5  A 2.5 2.5 0 0 1 1218.5 1179 L 1218.5 1185  A 2.5 2.5 0 0 1 1216 1187.5 L 1210 1187.5  A 2.5 2.5 0 0 1 1207.5 1185 L 1207.5 1179  Z " stroke-width="1" stroke="#000000" fill="none" stroke-opacity="0.349019607843137" />
</svg>