<?xml version="1.0" encoding="utf-8"?>
<svg version="1.1" xmlns:xlink="http://www.w3.org/1999/xlink" width="12px" height="12px" viewBox="1207 1210  12 12" xmlns="http://www.w3.org/2000/svg">
  <path d="M 1208 1213  A 2 2 0 0 1 1210 1211 L 1216 1211  A 2 2 0 0 1 1218 1213 L 1218 1219  A 2 2 0 0 1 1216 1221 L 1210 1221  A 2 2 0 0 1 1208 1219 L 1208 1213  Z " fill-rule="nonzero" fill="#f0f0f0" stroke="none" />
  <path d="M 1207.5 1213  A 2.5 2.5 0 0 1 1210 1210.5 L 1216 1210.5  A 2.5 2.5 0 0 1 1218.5 1213 L 1218.5 1219  A 2.5 2.5 0 0 1 1216 1221.5 L 1210 1221.5  A 2.5 2.5 0 0 1 1207.5 1219 L 1207.5 1213  Z " stroke-width="1" stroke="#000000" fill="none" stroke-opacity="0.349019607843137" />
  <path d="M 1209.57142857143 1216  L 1212.14285714286 1218.57142857143  " stroke-width="2.57142857142857" stroke="#000000" fill="none" stroke-opacity="0.349019607843137" />
  <path d="M 1212.14285714286 1218.57142857143  L 1216.42857142857 1212.57142857143  " stroke-width="2.57142857142857" stroke="#000000" fill="none" stroke-opacity="0.349019607843137" />
</svg>