<?xml version="1.0" encoding="utf-8"?>
<svg version="1.1" xmlns:xlink="http://www.w3.org/1999/xlink" width="12px" height="12px" viewBox="1207 1248  12 12" xmlns="http://www.w3.org/2000/svg">
  <path d="M 1208 1251  A 2 2 0 0 1 1210 1249 L 1216 1249  A 2 2 0 0 1 1218 1251 L 1218 1257  A 2 2 0 0 1 1216 1259 L 1210 1259  A 2 2 0 0 1 1208 1257 L 1208 1251  Z " fill-rule="nonzero" fill="#ffffff" stroke="none" />
  <path d="M 1207.5 1251  A 2.5 2.5 0 0 1 1210 1248.5 L 1216 1248.5  A 2.5 2.5 0 0 1 1218.5 1251 L 1218.5 1257  A 2.5 2.5 0 0 1 1216 1259.5 L 1210 1259.5  A 2.5 2.5 0 0 1 1207.5 1257 L 1207.5 1251  Z " stroke-width="1" stroke="#000000" fill="none" stroke-opacity="0.349019607843137" />
</svg>