<?xml version="1.0" encoding="utf-8"?>
<svg version="1.1" xmlns:xlink="http://www.w3.org/1999/xlink" width="12px" height="12px" viewBox="1318 735  12 12" xmlns="http://www.w3.org/2000/svg">
  <path d="M 1324 735.5  C 1327.08 735.5  1329.5 737.92  1329.5 741  C 1329.5 744.08  1327.08 746.5  1324 746.5  C 1320.92 746.5  1318.5 744.08  1318.5 741  C 1318.5 737.92  1320.92 735.5  1324 735.5  Z " fill-rule="nonzero" fill="#ffffff" stroke="none" />
  <path d="M 1324 735.5  C 1327.08 735.5  1329.5 737.92  1329.5 741  C 1329.5 744.08  1327.08 746.5  1324 746.5  C 1320.92 746.5  1318.5 744.08  1318.5 741  C 1318.5 737.92  1320.92 735.5  1324 735.5  Z " stroke-width="1" stroke="#1e2a3e" fill="none" stroke-opacity="0.768627450980392" />
  <path d="M 1324 744  C 1322.32 744  1321 742.68  1321 741  C 1321 739.32  1322.32 738  1324 738  C 1325.68 738  1327 739.32  1327 741  C 1327 742.68  1325.68 744  1324 744  " fill-rule="nonzero" fill="#1e2a3e" stroke="none" fill-opacity="0.768627450980392" />
</svg>