<?xml version="1.0" encoding="utf-8"?>
<svg version="1.1" xmlns:xlink="http://www.w3.org/1999/xlink" width="12px" height="12px" viewBox="1318 586  12 12" xmlns="http://www.w3.org/2000/svg">
  <path d="M 1324 586.5  C 1327.08 586.5  1329.5 588.92  1329.5 592  C 1329.5 595.08  1327.08 597.5  1324 597.5  C 1320.92 597.5  1318.5 595.08  1318.5 592  C 1318.5 588.92  1320.92 586.5  1324 586.5  Z " fill-rule="nonzero" fill="#f0f0f0" stroke="none" />
  <path d="M 1324 586.5  C 1327.08 586.5  1329.5 588.92  1329.5 592  C 1329.5 595.08  1327.08 597.5  1324 597.5  C 1320.92 597.5  1318.5 595.08  1318.5 592  C 1318.5 588.92  1320.92 586.5  1324 586.5  Z " stroke-width="1" stroke="#1e2a3e" fill="none" stroke-opacity="0.768627450980392" />
  <path d="M 1324 595  C 1322.32 595  1321 593.68  1321 592  C 1321 590.32  1322.32 589  1324 589  C 1325.68 589  1327 590.32  1327 592  C 1327 593.68  1325.68 595  1324 595  " fill-rule="nonzero" fill="#1e2a3e" stroke="none" fill-opacity="0.768627450980392" />
</svg>