<?xml version="1.0" encoding="utf-8"?>
<svg version="1.1" xmlns:xlink="http://www.w3.org/1999/xlink" width="12px" height="12px" viewBox="1318 954  12 12" xmlns="http://www.w3.org/2000/svg">
  <path d="M 1324 954.5  C 1327.08 954.5  1329.5 956.92  1329.5 960  C 1329.5 963.08  1327.08 965.5  1324 965.5  C 1320.92 965.5  1318.5 963.08  1318.5 960  C 1318.5 956.92  1320.92 954.5  1324 954.5  Z " fill-rule="nonzero" fill="#ffffff" stroke="none" />
  <path d="M 1324 954.5  C 1327.08 954.5  1329.5 956.92  1329.5 960  C 1329.5 963.08  1327.08 965.5  1324 965.5  C 1320.92 965.5  1318.5 963.08  1318.5 960  C 1318.5 956.92  1320.92 954.5  1324 954.5  Z " stroke-width="1" stroke="#1e2a3e" fill="none" stroke-opacity="0.768627450980392" />
  <path d="M 1324 963  C 1322.32 963  1321 961.68  1321 960  C 1321 958.32  1322.32 957  1324 957  C 1325.68 957  1327 958.32  1327 960  C 1327 961.68  1325.68 963  1324 963  " fill-rule="nonzero" fill="#1e2a3e" stroke="none" fill-opacity="0.768627450980392" />
</svg>