<?xml version="1.0" encoding="utf-8"?>
<svg version="1.1" xmlns:xlink="http://www.w3.org/1999/xlink" width="12px" height="12px" viewBox="1318 1176  12 12" xmlns="http://www.w3.org/2000/svg">
  <path d="M 1324 1176.5  C 1327.08 1176.5  1329.5 1178.92  1329.5 1182  C 1329.5 1185.08  1327.08 1187.5  1324 1187.5  C 1320.92 1187.5  1318.5 1185.08  1318.5 1182  C 1318.5 1178.92  1320.92 1176.5  1324 1176.5  Z " fill-rule="nonzero" fill="#f0f0f0" stroke="none" />
  <path d="M 1324 1176.5  C 1327.08 1176.5  1329.5 1178.92  1329.5 1182  C 1329.5 1185.08  1327.08 1187.5  1324 1187.5  C 1320.92 1187.5  1318.5 1185.08  1318.5 1182  C 1318.5 1178.92  1320.92 1176.5  1324 1176.5  Z " stroke-width="1" stroke="#1e2a3e" fill="none" stroke-opacity="0.768627450980392" />
  <path d="M 1324 1185  C 1322.32 1185  1321 1183.68  1321 1182  C 1321 1180.32  1322.32 1179  1324 1179  C 1325.68 1179  1327 1180.32  1327 1182  C 1327 1183.68  1325.68 1185  1324 1185  " fill-rule="nonzero" fill="#1e2a3e" stroke="none" fill-opacity="0.768627450980392" />
</svg>